<?xml version="1.0" standalone="no"?>
<!DOCTYPE svg PUBLIC "-//W3C//DTD SVG 1.1//EN" "http://www.w3.org/Graphics/SVG/1.1/DTD/svg11.dtd" >
<svg xmlns="http://www.w3.org/2000/svg">
<metadata>
<json>
<![CDATA[
{
	"fontFamily": "basicicon",
	"majorVersion": 1,
	"minorVersion": 0,
	"version": "Version 1.0",
	"fontId": "basicicon",
	"psName": "basicicon",
	"subFamily": "Regular",
	"fullName": "basicicon",
	"description": "Font generated by IcoMoon."
}
]]>
</json>
</metadata>
<defs>
<font id="basicicon" horiz-adv-x="1024">
<font-face units-per-em="1024" ascent="960" descent="-64" />
<missing-glyph horiz-adv-x="1024" />
<glyph unicode="&#x20;" horiz-adv-x="512" d="" />
<glyph unicode="&#xe900;" glyph-name="angle_left" data-tags="angle_left" horiz-adv-x="384" d="M305.14 715.253l-271.54-271.52 271.54-271.52 45.26 45.24-226.28 226.28 226.28 226.28z" />
<glyph unicode="&#xe901;" glyph-name="angle_right" data-tags="angle_right" horiz-adv-x="384" d="M78.86 172.213l271.54 271.52-271.54 271.52-45.26-45.24 226.28-226.28-226.28-226.28z" />
<glyph unicode="&#xe902;" glyph-name="angle_up" data-tags="angle_up" horiz-adv-x="576" d="M559.52 362.593l-271.52 271.54-271.52-271.54 45.24-45.26 226.28 226.28 226.28-226.28z" />
<glyph unicode="&#xe903;" glyph-name="angle_down" data-tags="angle_down" horiz-adv-x="576" d="M16.48 524.873l271.52-271.54 271.52 271.54-45.24 45.26-226.28-226.28-226.28 226.28z" />
<glyph unicode="&#xe904;" glyph-name="angle_left-right" data-tags="angle_left-right" horiz-adv-x="896" d="M319.78 670.013l-226.28-226.28 226.28-226.28-45.26-45.26-271.52 271.54 271.52 271.52 45.26-45.24zM624.48 172.213l271.52 271.52-271.52 271.52-45.26-45.26 226.28-226.26-226.28-226.28 45.26-45.24z" />
<glyph unicode="&#xe905;" glyph-name="angle_up-down" data-tags="angle_up-down" horiz-adv-x="576" d="M61.72 312.513l226.28-226.28 226.28 226.28 45.26-45.26-271.54-271.52-271.52 271.52 45.24 45.26zM559.52 620.213l-271.52 271.52-271.52-271.52 45.26-45.26 226.26 226.28 226.28-226.28 45.24 45.26z" />
<glyph unicode="&#xe906;" glyph-name="angle_left-stop" data-tags="angle_left-stop" horiz-adv-x="640" d="M508.78 670.013l-226.28-226.28 226.28-226.28-45.26-45.26-271.52 271.54 271.52 271.52 45.26-45.24zM0 763.733v-640h64v640h-64z" />
<glyph unicode="&#xe907;" glyph-name="angle_right-stop" data-tags="angle_right-stop" horiz-adv-x="640" d="M131.22 217.453l226.28 226.28-226.28 226.28 45.26 45.26 271.52-271.54-271.52-271.52-45.26 45.24zM640 123.733v640h-64v-640h64z" />
<glyph unicode="&#xe908;" glyph-name="angle_up-stop" data-tags="angle_up-stop" horiz-adv-x="640" d="M544.28 254.953l-226.28 226.28-226.28-226.28-45.26 45.26 271.54 271.52 271.52-271.52-45.24-45.26zM640 763.733h-640v-64h640v64z" />
<glyph unicode="&#xe909;" glyph-name="angle_down-stop" data-tags="angle_down-stop" horiz-adv-x="640" d="M95.72 696.513l226.28-226.28 226.28 226.28 45.26-45.26-271.54-271.52-271.52 271.52 45.24 45.26zM0 187.733h640v64h-640v-64z" />
<glyph unicode="&#xe90a;" glyph-name="angle_signin" data-tags="angle_signin" horiz-adv-x="640" d="M67.26 217.453l226.26 226.28-226.26 226.28 45.26 45.26 271.52-271.54-271.54-271.52-45.24 45.24zM448 763.733v-64h128v-512h-128v-64h192v640h-192z" />
<glyph unicode="&#xe90b;" glyph-name="angle_signout" data-tags="angle_signout" horiz-adv-x="640" d="M640 443.733l-271.52-271.52-45.26 45.26 226.28 226.26-226.28 226.28 45.26 45.26 271.52-271.54zM192 123.733v64h-128v512h128v64h-192v-640h192z" />
<glyph unicode="&#xe90c;" glyph-name="angle_upload" data-tags="angle_upload" horiz-adv-x="640" d="M0 123.733v192h64v-128h512v128h64v-192h-640zM546.28 446.953l45.26 45.26-271.54 271.52-271.52-271.52 45.26-45.26 226.26 226.28 226.28-226.28z" />
<glyph unicode="&#xe90d;" glyph-name="angle_download" data-tags="angle_download" horiz-adv-x="640" d="M320 379.733l-271.52 271.52 45.26 45.26 226.26-226.28 226.28 226.28 45.26-45.26-271.54-271.52zM576 315.733v-128h-512v128h-64v-192h640v192h-64z" />
<glyph unicode="&#xe90e;" glyph-name="angle_left-light" data-tags="angle_left-light" horiz-adv-x="384" d="M319.28 720.913l-277.18-277.18 277.18-277.18 22.62 22.62-254.56 254.56 254.56 254.56z" />
<glyph unicode="&#xe90f;" glyph-name="angle_right-light" data-tags="angle_right-light" horiz-adv-x="384" d="M64.72 166.553l277.18 277.18-277.18 277.18-22.62-22.62 254.56-254.56-254.56-254.56z" />
<glyph unicode="&#xe910;" glyph-name="angle_up-light" data-tags="angle_up-light" horiz-adv-x="576" d="M565.18 316.453l-277.18 277.18-277.18-277.18 22.62-22.62 254.56 254.56 254.56-254.56z" />
<glyph unicode="&#xe911;" glyph-name="angle_down-light" data-tags="angle_down-light" horiz-adv-x="576" d="M10.82 571.013l277.18-277.18 277.18 277.18-22.62 22.62-254.56-254.56-254.56 254.56z" />
<glyph unicode="&#xe912;" glyph-name="angle_left-right-light" data-tags="angle_left-right-light" horiz-adv-x="896" d="M299.82 698.293l-254.56-254.56 254.56-254.56-22.62-22.62-277.2 277.18 277.18 277.18 22.64-22.62zM618.82 166.553l277.18 277.18-277.18 277.18-22.62-22.62 254.54-254.56-254.56-254.56 22.64-22.62z" />
<glyph unicode="&#xe913;" glyph-name="angle_up-down-light" data-tags="angle_up-down-light" horiz-adv-x="576" d="M33.44 295.553l254.56-254.56 254.56 254.56 22.62-22.62-277.18-277.2-277.18 277.18 22.62 22.64zM565.18 614.553l-277.18 277.18-277.18-277.18 22.62-22.62 254.56 254.54 254.56-254.56 22.62 22.64z" />
<glyph unicode="&#xe914;" glyph-name="angle_left-stop-light" data-tags="angle_left-stop-light" horiz-adv-x="640" d="M32 763.733v-640h-32v640h32zM469.18 720.913l-277.18-277.18 277.18-277.18 22.62 22.62-254.54 254.56 254.56 254.56-22.64 22.62z" />
<glyph unicode="&#xe915;" glyph-name="angle_right-stop-light" data-tags="angle_right-stop-light" horiz-adv-x="640" d="M608 123.733v640h32v-640h-32zM170.82 166.553l277.18 277.18-277.18 277.18-22.62-22.62 254.54-254.56-254.56-254.56 22.64-22.62z" />
<glyph unicode="&#xe916;" glyph-name="angle_up-stop-light" data-tags="angle_up-stop-light" horiz-adv-x="640" d="M640 731.733h-640v32h640v-32zM597.18 294.553l-277.18 277.18-277.18-277.18 22.62-22.62 254.56 254.54 254.56-254.56 22.62 22.64z" />
<glyph unicode="&#xe917;" glyph-name="angle_down-stop-light" data-tags="angle_down-stop-light" horiz-adv-x="640" d="M0 219.733h640v-32h-640v32zM42.82 656.913l277.18-277.18 277.18 277.18-22.62 22.62-254.56-254.54-254.56 254.56-22.62-22.64z" />
<glyph unicode="&#xe918;" glyph-name="angle_signin-light" data-tags="angle_signin-light" horiz-adv-x="640" d="M84.22 189.173l254.56 254.56-254.56 254.56 22.62 22.62 277.2-277.18-277.18-277.18-22.64 22.62zM448 763.733v-32h160v-576h-160v-32h192v640h-192z" />
<glyph unicode="&#xe919;" glyph-name="angle_signout-light" data-tags="angle_signout-light" horiz-adv-x="640" d="M340.18 189.173l254.56 254.56-254.56 254.56 22.62 22.62 277.2-277.18-277.18-277.18-22.64 22.62zM192 123.733v32h-160v576h160v32h-192v-640h192z" />
<glyph unicode="&#xe91a;" glyph-name="angle_upload-light" data-tags="angle_upload-light" horiz-adv-x="640" d="M320 718.473l-254.56-254.56-22.62 22.62 277.18 277.2 277.18-277.18-22.62-22.62-254.56 254.54zM640 123.733v192h-32v-160h-576v160h-32v-192h640z" />
<glyph unicode="&#xe91b;" glyph-name="angle_download-light" data-tags="angle_download-light" horiz-adv-x="640" d="M597.18 656.913l-277.18-277.18-277.18 277.18 22.62 22.62 254.56-254.54 254.56 254.56 22.62-22.64zM608 155.733h-576v160h-32v-192h640v192h-32v-160z" />
<glyph unicode="&#xe91c;" glyph-name="angle_left-bold" data-tags="angle_left-bold" horiz-adv-x="384" d="M297.14 721.893l-278.16-278.16 278.16-278.16 67.88 67.88-210.28 210.28 210.28 210.28z" />
<glyph unicode="&#xe91d;" glyph-name="angle_right-bold" data-tags="angle_right-bold" horiz-adv-x="384" d="M86.86 165.573l278.16 278.16-278.16 278.16-67.88-67.88 210.28-210.28-210.28-210.28z" />
<glyph unicode="&#xe91e;" glyph-name="angle_up-bold" data-tags="angle_up-bold" horiz-adv-x="576" d="M566.16 338.593l-278.16 278.16-278.16-278.16 67.88-67.88 210.28 210.28 210.28-210.28z" />
<glyph unicode="&#xe91f;" glyph-name="angle_down-bold" data-tags="angle_down-bold" horiz-adv-x="576" d="M9.84 548.873l278.16-278.16 278.16 278.16-67.88 67.88-210.28-210.28-210.28 210.28z" />
<glyph unicode="&#xe920;" glyph-name="angle_left-right-bold" data-tags="angle_left-right-bold" horiz-adv-x="896" d="M549.96 233.453l210.28 210.28-210.28 210.28 67.88 67.88 278.16-278.16-278.16-278.16-67.88 67.88zM278.16 721.893l-278.16-278.16 278.16-278.16 67.88 67.88-210.28 210.28 210.28 210.28-67.88 67.88z" />
<glyph unicode="&#xe921;" glyph-name="angle_up-down-bold" data-tags="angle_up-down-bold" horiz-adv-x="576" d="M498.28 545.693l-210.28 210.28-210.28-210.28-67.88 67.88 278.16 278.16 278.16-278.16-67.88-67.88zM9.84 273.893l278.16-278.16 278.16 278.16-67.88 67.88-210.28-210.28-210.28 210.28-67.88-67.88z" />
<glyph unicode="&#xe922;" glyph-name="angle_left-stop-bold" data-tags="angle_left-stop-bold" horiz-adv-x="640" d="M96 763.733v-640h-96v640h96zM538.040 654.013l-210.28-210.28 210.28-210.28-67.88-67.88-278.16 278.16 278.16 278.16 67.88-67.88z" />
<glyph unicode="&#xe923;" glyph-name="angle_right-stop-bold" data-tags="angle_right-stop-bold" horiz-adv-x="640" d="M544 123.733v640h96v-640h-96zM101.96 233.453l210.28 210.28-210.28 210.28 67.88 67.88 278.16-278.16-278.16-278.16-67.88 67.88z" />
<glyph unicode="&#xe924;" glyph-name="angle_up-stop-bold" data-tags="angle_up-stop-bold" horiz-adv-x="640" d="M640 667.733h-640v96h640v-96zM530.28 225.693l-210.28 210.28-210.28-210.28-67.88 67.88 278.16 278.16 278.16-278.16-67.88-67.88z" />
<glyph unicode="&#xe925;" glyph-name="angle_down-stop-bold" data-tags="angle_down-stop-bold" horiz-adv-x="640" d="M0 283.733h640v-96h-640v96zM109.72 725.773l210.28-210.28 210.28 210.28 67.88-67.88-278.16-278.16-278.16 278.16 67.88 67.88z" />
<glyph unicode="&#xe926;" glyph-name="angle_signin-bold" data-tags="angle_signin-bold" horiz-adv-x="640" d="M384.040 443.733l-278.16-278.16-67.88 67.88 210.28 210.28-210.28 210.28 67.88 67.88 278.16-278.16zM448 763.733v-96h96v-448h-96v-96h192v640h-192z" />
<glyph unicode="&#xe927;" glyph-name="angle_signout-bold" data-tags="angle_signout-bold" horiz-adv-x="640" d="M293.96 233.453l210.28 210.28-210.28 210.28 67.88 67.88 278.16-278.16-278.16-278.16-67.88 67.88zM96 667.733h96v96h-192v-640h192v96h-96v448z" />
<glyph unicode="&#xe928;" glyph-name="angle_upload-bold" data-tags="angle_upload-bold" horiz-adv-x="640" d="M0 123.733v192h96v-96h448v96h96v-192h-640zM41.84 485.573l67.88-67.88 210.28 210.28 210.28-210.28 67.88 67.88-278.16 278.16-278.16-278.16z" />
<glyph unicode="&#xe929;" glyph-name="angle_download-bold" data-tags="angle_download-bold" horiz-adv-x="640" d="M320 379.733l-278.16 278.16 67.88 67.88 210.28-210.28 210.28 210.28 67.88-67.88-278.16-278.16zM544 219.733h-448v96h-96v-192h640v192h-96v-96z" />
<glyph unicode="&#xe92a;" glyph-name="angle_left-border-square" data-tags="angle_left-border-square" horiz-adv-x="896" d="M574.4 670.013l-226.28-226.28 226.28-226.28-45.26-45.26-271.54 271.54 271.52 271.52 45.28-45.24zM768 827.733h-640c-35.28 0-64-28.72-64-64v-640c0-35.28 28.72-64 64-64h640c35.28 0 64 28.72 64 64v640c0 35.28-28.72 64-64 64zM768 891.733c70.7 0 128-57.3 128-128v-640c0-70.7-57.3-128-128-128h-640c-70.7 0-128 57.3-128 128v640c0 70.7 57.3 128 128 128h640z" />
<glyph unicode="&#xe92b;" glyph-name="angle_right-border-square" data-tags="angle_right-border-square" horiz-adv-x="896" d="M321.6 217.453l226.28 226.28-226.28 226.28 45.26 45.26 271.54-271.54-271.54-271.52-45.26 45.24zM768 827.733h-640c-35.28 0-64-28.72-64-64v-640c0-35.28 28.72-64 64-64h640c35.28 0 64 28.72 64 64v640c0 35.28-28.72 64-64 64zM768 891.733c70.7 0 128-57.3 128-128v-640c0-70.7-57.3-128-128-128h-640c-70.7 0-128 57.3-128 128v640c0 70.7 57.3 128 128 128h640z" />
<glyph unicode="&#xe92c;" glyph-name="angle_up-border-square" data-tags="angle_up-border-square" horiz-adv-x="896" d="M674.28 317.333l-226.28 226.28-226.28-226.28-45.26 45.26 271.54 271.54 271.52-271.52-45.24-45.28zM768 827.733h-640c-35.28 0-64-28.72-64-64v-640c0-35.28 28.72-64 64-64h640c35.28 0 64 28.72 64 64v640c0 35.28-28.72 64-64 64zM768 891.733c70.7 0 128-57.3 128-128v-640c0-70.7-57.3-128-128-128h-640c-70.7 0-128 57.3-128 128v640c0 70.7 57.3 128 128 128h640z" />
<glyph unicode="&#xe92d;" glyph-name="angle_down-border-square" data-tags="angle_down-border-square" horiz-adv-x="896" d="M221.72 570.133l226.28-226.28 226.28 226.28 45.26-45.26-271.54-271.54-271.52 271.54 45.24 45.26zM768 827.733h-640c-35.28 0-64-28.72-64-64v-640c0-35.28 28.72-64 64-64h640c35.28 0 64 28.72 64 64v640c0 35.28-28.72 64-64 64zM768 891.733c70.7 0 128-57.3 128-128v-640c0-70.7-57.3-128-128-128h-640c-70.7 0-128 57.3-128 128v640c0 70.7 57.3 128 128 128h640z" />
<glyph unicode="&#xe92e;" glyph-name="angle_left-border-square-light" data-tags="angle_left-border-square-light" horiz-adv-x="896" d="M555.9 698.293l-254.56-254.56 254.56-254.56-22.62-22.62-277.18 277.18 277.18 277.18 22.62-22.62zM768 891.733c70.7 0 128-57.3 128-128v-640c0-70.7-57.3-128-128-128h-640c-70.7 0-128 57.3-128 128v640c0 70.7 57.3 128 128 128h640zM864 131.733v624c0 57.44-46.56 104-104 104h-624c-57.44 0-104-46.56-104-104v-624c0-57.44 46.56-104 104-104h624c57.44 0 104 46.56 104 104z" />
<glyph unicode="&#xe92f;" glyph-name="angle_right-border-square-light" data-tags="angle_right-border-square-light" horiz-adv-x="896" d="M340.66 189.173l254.56 254.56-254.56 254.56 22.62 22.62 277.18-277.18-277.18-277.18-22.62 22.62zM768 891.733c70.7 0 128-57.3 128-128v-640c0-70.7-57.3-128-128-128h-640c-70.7 0-128 57.3-128 128v640c0 70.7 57.3 128 128 128h640zM864 131.733v624c0 57.44-46.56 104-104 104h-624c-57.44 0-104-46.56-104-104v-624c0-57.44 46.56-104 104-104h624c57.44 0 104 46.56 104 104z" />
<glyph unicode="&#xe930;" glyph-name="angle_up-border-square-light" data-tags="angle_up-border-square-light" horiz-adv-x="896" d="M702.56 336.393l-254.56 254.56-254.56-254.56-22.62 22.62 277.18 277.18 277.18-277.18-22.62-22.62zM0 763.733c0 70.7 57.3 128 128 128h640c70.7 0 128-57.3 128-128v-640c0-70.7-57.3-128-128-128h-640c-70.7 0-128 57.3-128 128v640zM760 859.733h-624c-57.44 0-104-46.56-104-104v-624c0-57.44 46.56-104 104-104h624c57.44 0 104 46.56 104 104v624c0 57.44-46.56 104-104 104z" />
<glyph unicode="&#xe931;" glyph-name="angle_down-border-square-light" data-tags="angle_down-border-square-light" horiz-adv-x="896" d="M193.44 553.073l254.56-254.56 254.56 254.56 22.62-22.62-277.18-277.18-277.18 277.18 22.62 22.62zM896 123.733c0-70.7-57.3-128-128-128h-640c-70.7 0-128 57.3-128 128v640c0 70.7 57.3 128 128 128h640c70.7 0 128-57.3 128-128v-640zM136 27.733h624c57.44 0 104 46.56 104 104v624c0 57.44-46.56 104-104 104h-624c-57.44 0-104-46.56-104-104v-624c0-57.44 46.56-104 104-104z" />
<glyph unicode="&#xe932;" glyph-name="angle_left-border-square-bold" data-tags="angle_left-border-square-bold" horiz-adv-x="896" d="M587.020 654.013l-210.28-210.28 210.28-210.28-67.88-67.88-278.16 278.16 278.16 278.16 67.88-67.88zM768 891.733c70.7 0 128-57.3 128-128v-640c0-70.7-57.3-128-128-128h-640c-70.7 0-128 57.3-128 128v640c0 70.7 57.3 128 128 128h640zM741.34 795.733h-586.68c-32.34 0-58.66-26.32-58.66-58.66v-586.66c0-32.36 26.32-58.68 58.66-58.68h586.66c32.34 0 58.66 26.32 58.66 58.66v586.68c0.020 32.34-26.3 58.66-58.64 58.66z" />
<glyph unicode="&#xe933;" glyph-name="angle_right-border-square-bold" data-tags="angle_right-border-square-bold" horiz-adv-x="896" d="M308.98 233.453l210.28 210.28-210.28 210.28 67.88 67.88 278.16-278.16-278.16-278.16-67.88 67.88zM768 891.733c70.7 0 128-57.3 128-128v-640c0-70.7-57.3-128-128-128h-640c-70.7 0-128 57.3-128 128v640c0 70.7 57.3 128 128 128h640zM741.34 795.733h-586.68c-32.34 0-58.66-26.32-58.66-58.66v-586.66c0-32.36 26.32-58.68 58.66-58.68h586.66c32.34 0 58.66 26.32 58.66 58.66v586.68c0.020 32.34-26.3 58.66-58.64 58.66z" />
<glyph unicode="&#xe934;" glyph-name="angle_up-border-square-bold" data-tags="angle_up-border-square-bold" horiz-adv-x="896" d="M658.28 286.713l-210.28 210.28-210.28-210.28-67.88 67.88 278.16 278.16 278.16-278.16-67.88-67.88zM768 891.733c70.7 0 128-57.3 128-128v-640c0-70.7-57.3-128-128-128h-640c-70.7 0-128 57.3-128 128v640c0 70.7 57.3 128 128 128h640zM741.34 795.733h-586.68c-32.34 0-58.66-26.32-58.66-58.66v-586.66c0-32.36 26.32-58.68 58.66-58.68h586.66c32.34 0 58.66 26.32 58.66 58.66v586.68c0.020 32.34-26.3 58.66-58.64 58.66z" />
<glyph unicode="&#xe935;" glyph-name="angle_down-border-square-bold" data-tags="angle_down-border-square-bold" horiz-adv-x="896" d="M237.72 600.753l210.28-210.28 210.28 210.28 67.88-67.88-278.16-278.16-278.16 278.16 67.88 67.88zM768 891.733c70.7 0 128-57.3 128-128v-640c0-70.7-57.3-128-128-128h-640c-70.7 0-128 57.3-128 128v640c0 70.7 57.3 128 128 128h640zM741.34 795.733h-586.68c-32.34 0-58.66-26.32-58.66-58.66v-586.66c0-32.36 26.32-58.68 58.66-58.68h586.66c32.34 0 58.66 26.32 58.66 58.66v586.68c0.020 32.34-26.3 58.66-58.64 58.66z" />
<glyph unicode="&#xe936;" glyph-name="angle_left-border-circle" data-tags="angle_left-border-circle" horiz-adv-x="896" d="M574.4 670.013l-226.28-226.28 226.28-226.28-45.26-45.26-271.54 271.54 271.52 271.52 45.28-45.24zM896 443.733c0-247.42-200.58-448-448-448s-448 200.58-448 448 200.58 448 448 448 448-200.58 448-448zM448 827.733c-212.080 0-384-171.92-384-384s171.92-384 384-384 384 171.92 384 384-171.92 384-384 384z" />
<glyph unicode="&#xe937;" glyph-name="angle_right-border-circle" data-tags="angle_right-border-circle" horiz-adv-x="896" d="M452 891.733c-247.42 0-448-200.58-448-448s200.58-448 448-448 448 200.58 448 448-200.58 448-448 448zM836 443.733c0-212.080-171.92-384-384-384s-384 171.92-384 384 171.92 384 384 384 384-171.92 384-384zM325.6 217.453l226.28 226.28-226.28 226.28 45.26 45.26 271.54-271.54-271.54-271.52-45.26 45.24z" />
<glyph unicode="&#xe938;" glyph-name="angle_up-border-circle" data-tags="angle_up-border-circle" horiz-adv-x="896" d="M448 891.733c-247.42 0-448-200.58-448-448s200.58-448 448-448 448 200.58 448 448-200.58 448-448 448zM832 443.733c0-212.080-171.92-384-384-384s-384 171.92-384 384 171.92 384 384 384 384-171.92 384-384zM674.28 317.333l-226.28 226.28-226.28-226.28-45.26 45.26 271.54 271.54 271.52-271.52-45.24-45.28z" />
<glyph unicode="&#xe939;" glyph-name="angle_down-border-circle" data-tags="angle_down-border-circle" horiz-adv-x="896" d="M448 891.733c-247.42 0-448-200.58-448-448s200.58-448 448-448 448 200.58 448 448-200.58 448-448 448zM832 443.733c0-212.080-171.92-384-384-384s-384 171.92-384 384 171.92 384 384 384 384-171.92 384-384zM221.72 570.133l226.28-226.28 226.28 226.28 45.26-45.26-271.54-271.54-271.52 271.54 45.24 45.26z" />
<glyph unicode="&#xe93a;" glyph-name="angle_left-border-circle-light" data-tags="angle_left-border-circle-light" horiz-adv-x="896" d="M555.9 698.293l-254.56-254.56 254.56-254.56-22.62-22.62-277.18 277.18 277.18 277.18 22.62-22.62zM448 891.733c-247.42 0-448-200.58-448-448s200.58-448 448-448 448 200.58 448 448-200.58 448-448 448zM864 443.733c0-229.76-186.24-416-416-416s-416 186.24-416 416 186.24 416 416 416 416-186.24 416-416z" />
<glyph unicode="&#xe93b;" glyph-name="angle_right-border-circle-light" data-tags="angle_right-border-circle-light" horiz-adv-x="896" d="M344.66 189.173l254.56 254.56-254.56 254.56 22.62 22.62 277.18-277.18-277.18-277.18-22.62 22.62zM452 891.733c-247.42 0-448-200.58-448-448s200.58-448 448-448 448 200.58 448 448-200.58 448-448 448zM868 443.733c0-229.76-186.24-416-416-416s-416 186.24-416 416 186.24 416 416 416 416-186.24 416-416z" />
<glyph unicode="&#xe93c;" glyph-name="angle_up-border-circle-light" data-tags="angle_up-border-circle-light" horiz-adv-x="896" d="M702.56 333.833l-254.56 254.56-254.56-254.56-22.62 22.62 277.18 277.18 277.18-277.18-22.62-22.62zM448 891.733c-247.42 0-448-200.58-448-448s200.58-448 448-448 448 200.58 448 448-200.58 448-448 448zM864 443.733c0-229.76-186.24-416-416-416s-416 186.24-416 416 186.24 416 416 416 416-186.24 416-416z" />
<glyph unicode="&#xe93d;" glyph-name="angle_down-border-circle-light" data-tags="angle_down-border-circle-light" horiz-adv-x="896" d="M193.44 553.633l254.56-254.56 254.56 254.56 22.62-22.62-277.18-277.18-277.18 277.18 22.62 22.62zM448 891.733c-247.42 0-448-200.58-448-448s200.58-448 448-448 448 200.58 448 448-200.58 448-448 448zM864 443.733c0-229.76-186.24-416-416-416s-416 186.24-416 416 186.24 416 416 416 416-186.24 416-416z" />
<glyph unicode="&#xe93e;" glyph-name="angle_left-border-circle-bold" data-tags="angle_left-border-circle-bold" horiz-adv-x="896" d="M587.020 654.013l-210.28-210.28 210.28-210.28-67.88-67.88-278.16 278.16 278.16 278.16 67.88-67.88zM896 443.733c0-247.42-200.58-448-448-448s-448 200.58-448 448 200.58 448 448 448 448-200.58 448-448zM448 795.733c-194.4 0-352-157.6-352-352s157.6-352 352-352 352 157.6 352 352-157.6 352-352 352z" />
<glyph unicode="&#xe93f;" glyph-name="angle_right-border-circle-bold" data-tags="angle_right-border-circle-bold" horiz-adv-x="896" d="M312.98 233.453l210.28 210.28-210.28 210.28 67.88 67.88 278.16-278.16-278.16-278.16-67.88 67.88zM900 443.733c0-247.42-200.58-448-448-448s-448 200.58-448 448 200.58 448 448 448 448-200.58 448-448zM452 795.733c-194.4 0-352-157.6-352-352s157.6-352 352-352 352 157.6 352 352-157.6 352-352 352z" />
<glyph unicode="&#xe940;" glyph-name="angle_up-border-circle-bold" data-tags="angle_up-border-circle-bold" horiz-adv-x="896" d="M658.28 286.713l-210.28 210.28-210.28-210.28-67.88 67.88 278.16 278.16 278.16-278.16-67.88-67.88zM896 443.733c0-247.42-200.58-448-448-448s-448 200.58-448 448 200.58 448 448 448 448-200.58 448-448zM448 795.733c-194.4 0-352-157.6-352-352s157.6-352 352-352 352 157.6 352 352-157.6 352-352 352z" />
<glyph unicode="&#xe941;" glyph-name="angle_down-border-circle-bold" data-tags="angle_down-border-circle-bold" horiz-adv-x="896" d="M237.72 600.753l210.28-210.28 210.28 210.28 67.88-67.88-278.16-278.16-278.16 278.16 67.88 67.88zM896 443.733c0-247.42-200.58-448-448-448s-448 200.58-448 448 200.58 448 448 448 448-200.58 448-448zM448 795.733c-194.4 0-352-157.6-352-352s157.6-352 352-352 352 157.6 352 352-157.6 352-352 352z" />
<glyph unicode="&#xe942;" glyph-name="angle_left-square" data-tags="angle_left-square" horiz-adv-x="896" d="M574.4 670.013l-226.28-226.28 226.28-226.28-45.26-45.26-271.54 271.54 271.52 271.52 45.28-45.24zM896 123.733v640c0 70.7-57.3 128-128 128h-640c-70.7 0-128-57.3-128-128v-640c0-70.7 57.3-128 128-128h640c70.7 0 128 57.3 128 128z" />
<glyph unicode="&#xe943;" glyph-name="angle_right-square" data-tags="angle_right-square" horiz-adv-x="896" d="M321.6 217.453l226.28 226.28-226.28 226.28 45.26 45.26 271.54-271.54-271.54-271.52-45.26 45.24zM896 123.733v640c0 70.7-57.3 128-128 128h-640c-70.7 0-128-57.3-128-128v-640c0-70.7 57.3-128 128-128h640c70.7 0 128 57.3 128 128z" />
<glyph unicode="&#xe944;" glyph-name="angle_up-square" data-tags="angle_up-square" horiz-adv-x="896" d="M674.28 317.333l-226.28 226.28-226.28-226.28-45.26 45.26 271.54 271.54 271.52-271.52-45.24-45.28zM896 123.733v640c0 70.7-57.3 128-128 128h-640c-70.7 0-128-57.3-128-128v-640c0-70.7 57.3-128 128-128h640c70.7 0 128 57.3 128 128z" />
<glyph unicode="&#xe945;" glyph-name="angle_down-square" data-tags="angle_down-square" horiz-adv-x="896" d="M221.72 570.133l226.28-226.28 226.28 226.28 45.26-45.26-271.54-271.54-271.52 271.54 45.24 45.26zM896 123.733v640c0 70.7-57.3 128-128 128h-640c-70.7 0-128-57.3-128-128v-640c0-70.7 57.3-128 128-128h640c70.7 0 128 57.3 128 128z" />
<glyph unicode="&#xe946;" glyph-name="angle_left-square-light" data-tags="angle_left-square-light" horiz-adv-x="896" d="M768 891.733h-640c-70.7 0-128-57.3-128-128v-640c0-70.7 57.3-128 128-128h640c70.7 0 128 57.3 128 128v640c0 70.7-57.3 128-128 128v0zM555.9 698.293l-254.56-254.56 254.56-254.56-22.62-22.62-277.18 277.18 277.18 277.18 22.62-22.62z" />
<glyph unicode="&#xe947;" glyph-name="angle_right-square-light" data-tags="angle_right-square-light" horiz-adv-x="896" d="M768 891.733h-640c-70.7 0-128-57.3-128-128v-640c0-70.7 57.3-128 128-128h640c70.7 0 128 57.3 128 128v640c0 70.7-57.3 128-128 128v0zM340.66 189.173l254.56 254.56-254.56 254.56 22.62 22.62 277.18-277.18-277.18-277.18-22.62 22.62z" />
<glyph unicode="&#xe948;" glyph-name="angle_up-square-light" data-tags="angle_up-square-light" horiz-adv-x="896" d="M0 763.733v-640c0-70.7 57.3-128 128-128h640c70.7 0 128 57.3 128 128v640c0 70.7-57.3 128-128 128h-640c-70.7 0-128-57.3-128-128v0zM702.56 336.393l-254.56 254.56-254.56-254.56-22.62 22.62 277.18 277.18 277.18-277.18-22.62-22.62z" />
<glyph unicode="&#xe949;" glyph-name="angle_down-square-light" data-tags="angle_down-square-light" horiz-adv-x="896" d="M896 123.733v640c0 70.7-57.3 128-128 128h-640c-70.7 0-128-57.3-128-128v-640c0-70.7 57.3-128 128-128h640c70.7 0 128 57.3 128 128v0zM193.44 551.073l254.56-254.56 254.56 254.56 22.62-22.62-277.18-277.18-277.18 277.18 22.62 22.62z" />
<glyph unicode="&#xe94a;" glyph-name="angle_left-square-bold" data-tags="angle_left-square-bold" horiz-adv-x="896" d="M768 891.733h-640c-70.7 0-128-57.3-128-128v-640c0-70.7 57.3-128 128-128h640c70.7 0 128 57.3 128 128v640c0 70.7-57.3 128-128 128v0zM587.020 654.013l-210.28-210.28 210.28-210.28-67.88-67.88-278.16 278.16 278.16 278.16 67.88-67.88z" />
<glyph unicode="&#xe94b;" glyph-name="angle_right-square-bold" data-tags="angle_right-square-bold" horiz-adv-x="896" d="M768 891.733h-640c-70.7 0-128-57.3-128-128v-640c0-70.7 57.3-128 128-128h640c70.7 0 128 57.3 128 128v640c0 70.7-57.3 128-128 128v0zM308.98 233.453l210.28 210.28-210.28 210.28 67.88 67.88 278.16-278.16-278.16-278.16-67.88 67.88z" />
<glyph unicode="&#xe94c;" glyph-name="angle_up-square-bold" data-tags="angle_up-square-bold" horiz-adv-x="896" d="M768 891.733h-640c-70.7 0-128-57.3-128-128v-640c0-70.7 57.3-128 128-128h640c70.7 0 128 57.3 128 128v640c0 70.7-57.3 128-128 128v0zM658.28 302.713l-210.28 210.28-210.28-210.28-67.88 67.88 278.16 278.16 278.16-278.16-67.88-67.88z" />
<glyph unicode="&#xe94d;" glyph-name="angle_down-square-bold" data-tags="angle_down-square-bold" horiz-adv-x="896" d="M768 891.733h-640c-70.7 0-128-57.3-128-128v-640c0-70.7 57.3-128 128-128h640c70.7 0 128 57.3 128 128v640c0 70.7-57.3 128-128 128v0zM237.72 582.753l210.28-210.28 210.28 210.28 67.88-67.88-278.16-278.16-278.16 278.16 67.88 67.88z" />
<glyph unicode="&#xe94e;" glyph-name="angle_left-circle" data-tags="angle_left-circle" horiz-adv-x="896" d="M448-4.267c-247.42 0-448 200.58-448 448s200.58 448 448 448 448-200.58 448-448-200.58-448-448-448zM529.14 715.253l-271.54-271.52 271.52-271.52 45.26 45.26-226.26 226.26 226.28 226.28-45.26 45.24z" />
<glyph unicode="&#xe94f;" glyph-name="angle_right-circle" data-tags="angle_right-circle" horiz-adv-x="896" d="M448 891.733c247.42 0 448-200.58 448-448s-200.58-448-448-448-448 200.58-448 448 200.58 448 448 448zM366.86 172.213l271.54 271.52-271.54 271.52-45.26-45.26 226.28-226.26-226.28-226.28 45.26-45.24z" />
<glyph unicode="&#xe950;" glyph-name="angle_up-circle" data-tags="angle_up-circle" horiz-adv-x="896" d="M0 443.733c0 247.42 200.58 448 448 448s448-200.58 448-448-200.58-448-448-448-448 200.58-448 448zM719.52 362.593l-271.52 271.54-271.52-271.54 45.26-45.26 226.26 226.28 226.28-226.28 45.24 45.26z" />
<glyph unicode="&#xe951;" glyph-name="angle_down-circle" data-tags="angle_down-circle" horiz-adv-x="896" d="M896 443.733c0-247.42-200.58-448-448-448s-448 200.58-448 448 200.58 448 448 448 448-200.58 448-448zM176.48 524.873l271.52-271.54 271.52 271.52-45.26 45.26-226.26-226.26-226.28 226.28-45.24-45.26z" />
<glyph unicode="&#xe952;" glyph-name="angle_left-circle-light" data-tags="angle_left-circle-light" horiz-adv-x="896" d="M555.9 698.293l-254.56-254.56 254.56-254.56-22.62-22.62-277.18 277.18 277.18 277.18 22.62-22.62zM448 891.733c-247.42 0-448-200.58-448-448s200.58-448 448-448 448 200.58 448 448-200.58 448-448 448z" />
<glyph unicode="&#xe953;" glyph-name="angle_right-circle-light" data-tags="angle_right-circle-light" horiz-adv-x="896" d="M340.66 189.173l254.56 254.56-254.56 254.56 22.62 22.62 277.18-277.18-277.18-277.18-22.62 22.62zM448 891.733c-247.42 0-448-200.58-448-448s200.58-448 448-448 448 200.58 448 448-200.58 448-448 448z" />
<glyph unicode="&#xe954;" glyph-name="angle_up-circle-light" data-tags="angle_up-circle-light" horiz-adv-x="896" d="M702.56 336.393l-254.56 254.56-254.56-254.56-22.62 22.62 277.18 277.18 277.18-277.18-22.62-22.62zM448 891.733c-247.42 0-448-200.58-448-448s200.58-448 448-448 448 200.58 448 448-200.58 448-448 448z" />
<glyph unicode="&#xe955;" glyph-name="angle_down-circle-light" data-tags="angle_down-circle-light" horiz-adv-x="896" d="M193.44 551.073l254.56-254.56 254.56 254.56 22.62-22.62-277.18-277.18-277.18 277.18 22.62 22.62zM448 891.733c-247.42 0-448-200.58-448-448s200.58-448 448-448 448 200.58 448 448-200.58 448-448 448z" />
<glyph unicode="&#xe956;" glyph-name="angle_left-circle-bold" data-tags="angle_left-circle-bold" horiz-adv-x="896" d="M448 891.733c-247.42 0-448-200.58-448-448s200.58-448 448-448 448 200.58 448 448-200.58 448-448 448zM587.020 654.013l-210.28-210.28 210.28-210.28-67.88-67.88-278.16 278.16 278.16 278.16 67.88-67.88z" />
<glyph unicode="&#xe957;" glyph-name="angle_right-circle-bold" data-tags="angle_right-circle-bold" horiz-adv-x="896" d="M448 891.733c-247.42 0-448-200.58-448-448s200.58-448 448-448 448 200.58 448 448-200.58 448-448 448zM308.98 233.453l210.28 210.28-210.28 210.28 67.88 67.88 278.16-278.16-278.16-278.16-67.88 67.88z" />
<glyph unicode="&#xe958;" glyph-name="angle_up-circle-bold" data-tags="angle_up-circle-bold" horiz-adv-x="896" d="M448 891.733c-247.42 0-448-200.58-448-448s200.58-448 448-448 448 200.58 448 448-200.58 448-448 448zM658.28 302.713l-210.28 210.28-210.28-210.28-67.88 67.88 278.16 278.16 278.16-278.16-67.88-67.88z" />
<glyph unicode="&#xe959;" glyph-name="angle_down-circle-bold" data-tags="angle_down-circle-bold" horiz-adv-x="896" d="M448 891.733c-247.42 0-448-200.58-448-448s200.58-448 448-448 448 200.58 448 448-200.58 448-448 448zM237.72 582.753l210.28-210.28 210.28 210.28 67.88-67.88-278.16-278.16-278.16 278.16 67.88 67.88z" />
<glyph unicode="&#xe95a;" glyph-name="arrow_left" data-tags="arrow_left" horiz-adv-x="512" d="M512 475.733h-389.020l194.28 194.28-45.26 45.24-271.52-271.52 271.52-271.52 45.26 45.24-194.28 194.28h389.020z" />
<glyph unicode="&#xe95b;" glyph-name="arrow_right" data-tags="arrow_right" horiz-adv-x="512" d="M240.48 715.253l-45.26-45.24 194.28-194.28h-389.5v-64h389.5l-194.28-194.28 45.26-45.24 271.52 271.52z" />
<glyph unicode="&#xe95c;" glyph-name="arrow_up" data-tags="arrow_up" horiz-adv-x="576" d="M559.52 428.213l-271.52 271.52-271.52-271.52 45.24-45.26 194.28 194.28v-389.5h64v389.5l194.28-194.28z" />
<glyph unicode="&#xe95d;" glyph-name="arrow_down" data-tags="arrow_down" horiz-adv-x="576" d="M514.28 504.133l-194.28-194.28v389.88h-64v-389.88l-194.28 194.28-45.24-45.26 271.52-271.54 271.52 271.54z" />
<glyph unicode="&#xe95e;" glyph-name="arrow_left-right" data-tags="arrow_left-right" horiz-adv-x="896" d="M622.98 715.253l-45.26-45.24 195.28-195.28h-650l195.28 195.28-45.26 45.24-271.52-271.52 271.52-271.52 45.26 45.24-193.28 193.28h646l-193.28-193.28 45.26-45.24 271.52 271.52z" />
<glyph unicode="&#xe95f;" glyph-name="arrow_up-down" data-tags="arrow_up-down" horiz-adv-x="576" d="M514.28 312.513l-194.28-194.28v651l194.28-194.28 45.24 45.26-271.52 271.52-271.52-271.52 45.24-45.26 194.28 194.28v-651l-194.28 194.28-45.24-45.26 271.52-271.52 271.52 271.52z" />
<glyph unicode="&#xe960;" glyph-name="arrow_left-stop" data-tags="arrow_left-stop" horiz-adv-x="640" d="M0 763.733v-640h64v640h-64zM640 411.733h-389.020l194.28-194.28-45.26-45.24-271.52 271.52 271.52 271.52 45.26-45.26-194.28-194.26h389.020v-64z" />
<glyph unicode="&#xe961;" glyph-name="arrow_right-stop" data-tags="arrow_right-stop" horiz-adv-x="640" d="M640 123.733v640h-64v-640h64zM512 443.733l-271.52-271.52-45.26 45.26 194.28 194.26h-389.5v64h389.5l-194.28 194.28 45.26 45.26 271.52-271.54z" />
<glyph unicode="&#xe962;" glyph-name="arrow_up-stop" data-tags="arrow_up-stop" horiz-adv-x="640" d="M640 763.733h-640v-64h640v64zM546.28 318.953l-194.28 194.28v-389.5h-64v389.5l-194.28-194.28-45.26 45.26 271.54 271.52 271.52-271.52-45.24-45.26z" />
<glyph unicode="&#xe963;" glyph-name="arrow_down-stop" data-tags="arrow_down-stop" horiz-adv-x="640" d="M0 123.733h640v64h-640v-64zM591.52 522.873l-271.52-271.54-271.52 271.54 45.26 45.26 194.26-194.28v389.88h64v-389.88l194.28 194.28 45.24-45.26z" />
<glyph unicode="&#xe964;" glyph-name="arrow_signin" data-tags="arrow_signin" horiz-adv-x="768" d="M512 443.733l-271.52-271.52-45.26 45.24 194.28 194.28h-389.5v64h389.5l-194.28 194.28 45.26 45.24zM576 763.733v-64h128v-512h-128v-64h192v640h-192z" />
<glyph unicode="&#xe965;" glyph-name="arrow_signout" data-tags="arrow_signout" horiz-adv-x="768" d="M768 443.733l-271.52-271.52-45.26 45.24 194.28 194.28h-389.5v64h389.5l-194.28 194.28 45.26 45.24zM192 123.733v64h-128v512h128v64h-192v-640h192z" />
<glyph unicode="&#xe966;" glyph-name="arrow_upload" data-tags="arrow_upload" horiz-adv-x="640" d="M546.28 510.953l-194.28 194.28v-389.5h-64v389.5l-194.28-194.28-45.24 45.26 271.52 271.52 271.52-271.52zM640 253.733h-64v-128h-512v128h-64v-192h640v192z" />
<glyph unicode="&#xe967;" glyph-name="arrow_download" data-tags="arrow_download" horiz-adv-x="640" d="M591.52 586.873l-271.52-271.54-271.52 271.54 45.24 45.26 194.28-194.28v389.88h64v-389.88l194.28 194.28zM640 253.733h-64v-128h-512v128h-64v-192h640v192z" />
<glyph unicode="&#xe968;" glyph-name="arrow_left-light" data-tags="arrow_left-light" horiz-adv-x="512" d="M512 459.733h-450.74l238.56 238.56-22.64 22.62-277.18-277.18 277.18-277.18 22.64 22.62-238.56 238.56h450.74z" />
<glyph unicode="&#xe969;" glyph-name="arrow_right-light" data-tags="arrow_right-light" horiz-adv-x="512" d="M234.82 720.913l-22.64-22.62 238.56-238.56h-450.74v-32h450.74l-238.56-238.56 22.64-22.62 277.18 277.18z" />
<glyph unicode="&#xe96a;" glyph-name="arrow_up-light" data-tags="arrow_up-light" horiz-adv-x="576" d="M565.18 422.553l-277.18 277.18-277.18-277.18 22.62-22.64 238.56 238.56v-450.74h32v450.74l238.56-238.56z" />
<glyph unicode="&#xe96b;" glyph-name="arrow_down-light" data-tags="arrow_down-light" horiz-adv-x="576" d="M542.56 487.553l-238.56-238.56v450.74h-32v-450.74l-238.56 238.56-22.62-22.64 277.18-277.18 277.18 277.18z" />
<glyph unicode="&#xe96c;" glyph-name="arrow_left-right-light" data-tags="arrow_left-right-light" horiz-adv-x="896" d="M618.82 720.913l-22.64-22.62 237.56-237.56h-771.48l237.56 237.56-22.64 22.62-277.18-277.18 277.18-277.18 22.64 22.62-239.56 239.56h775.48l-239.56-239.56 22.64-22.62 277.18 277.18z" />
<glyph unicode="&#xe96d;" glyph-name="arrow_up-down-light" data-tags="arrow_up-down-light" horiz-adv-x="576" d="M304 56.993v773.48l238.56-238.56 22.62 22.64-277.18 277.18-277.18-277.18 22.62-22.64 238.56 238.56v-773.48l-238.56 238.56-22.62-22.64 277.18-277.18 277.18 277.18-22.62 22.64z" />
<glyph unicode="&#xe96e;" glyph-name="arrow_left-stop-light" data-tags="arrow_left-stop-light" horiz-adv-x="640" d="M32 763.733v-640h-32v640h32zM640 459.733h-450.74l238.56 238.56-22.62 22.62-277.2-277.18 277.18-277.18 22.62 22.62-238.54 238.56h450.74v32z" />
<glyph unicode="&#xe96f;" glyph-name="arrow_right-stop-light" data-tags="arrow_right-stop-light" horiz-adv-x="640" d="M608 123.733v640h32v-640h-32zM234.82 720.913l-22.62-22.62 238.54-238.56h-450.74v-32h450.74l-238.56-238.56 22.62-22.62 277.2 277.18-277.18 277.18z" />
<glyph unicode="&#xe970;" glyph-name="arrow_up-stop-light" data-tags="arrow_up-stop-light" horiz-adv-x="640" d="M640 731.733h-640v32h640v-32zM597.18 358.553l-277.18 277.18-277.18-277.18 22.62-22.62 238.56 238.54v-450.74h32v450.74l238.56-238.56 22.62 22.64z" />
<glyph unicode="&#xe971;" glyph-name="arrow_down-stop-light" data-tags="arrow_down-stop-light" horiz-adv-x="640" d="M0 150.693h640v-32h-640v32zM574.56 551.553l-238.56-238.56v450.74h-32v-450.74l-238.56 238.56-22.62-22.62 277.18-277.2 277.18 277.18-22.62 22.64z" />
<glyph unicode="&#xe972;" glyph-name="arrow_signin-light" data-tags="arrow_signin-light" horiz-adv-x="768" d="M234.82 720.913l-22.64-22.62 238.56-238.56h-450.74v-32h450.74l-238.56-238.56 22.64-22.62 277.18 277.18zM576 763.733v-32h160v-576h-160v-32h192v640h-192z" />
<glyph unicode="&#xe973;" glyph-name="arrow_signout-light" data-tags="arrow_signout-light" horiz-adv-x="768" d="M490.82 720.913l-22.64-22.62 238.56-238.56h-450.74v-32h450.74l-238.56-238.56 22.64-22.62 277.18 277.18zM192 123.733v32h-160v576h160v32h-192v-640h192z" />
<glyph unicode="&#xe974;" glyph-name="arrow_upload-light" data-tags="arrow_upload-light" horiz-adv-x="640" d="M597.18 550.553l-277.18 277.18-277.18-277.18 22.62-22.64 238.56 238.56v-450.74h32v450.74l238.56-238.56zM640 57.733v192h-32v-160h-576v160h-32v-192h640z" />
<glyph unicode="&#xe975;" glyph-name="arrow_download-light" data-tags="arrow_download-light" horiz-adv-x="640" d="M574.56 615.553l-238.56-238.56v450.74h-32v-450.74l-238.56 238.56-22.62-22.64 277.18-277.18 277.18 277.18zM608 89.733h-576v160h-32v-192h640v192h-32v-160z" />
<glyph unicode="&#xe976;" glyph-name="arrow_left-bold" data-tags="arrow_left-bold" horiz-adv-x="512" d="M512 491.733h-328.24l162.28 162.28-67.88 67.88-278.16-278.16 278.16-278.16 67.88 67.88-162.28 162.28h328.24z" />
<glyph unicode="&#xe977;" glyph-name="arrow_right-bold" data-tags="arrow_right-bold" horiz-adv-x="512" d="M0 395.733h328.24l-162.28-162.28 67.88-67.88 278.16 278.16-278.16 278.16-67.88-67.88 162.28-162.28h-328.24z" />
<glyph unicode="&#xe978;" glyph-name="arrow_up-bold" data-tags="arrow_up-bold" horiz-adv-x="576" d="M336 187.733v328.24l162.28-162.28 67.88 67.88-278.16 278.16-278.16-278.16 67.88-67.88 162.28 162.28v-328.24z" />
<glyph unicode="&#xe979;" glyph-name="arrow_down-bold" data-tags="arrow_down-bold" horiz-adv-x="576" d="M240 699.733v-328.24l-162.28 162.28-67.88-67.88 278.16-278.16 278.16 278.16-67.88 67.88-162.28-162.28v328.24z" />
<glyph unicode="&#xe97a;" glyph-name="arrow_left-right-bold" data-tags="arrow_left-right-bold" horiz-adv-x="896" d="M346.040 233.453l-162.28 162.28h528.48l-162.28-162.28 67.88-67.88 278.16 278.16-278.16 278.16-67.88-67.88 162.28-162.28h-528.48l162.28 162.28-67.88 67.88-278.16-278.16 278.16-278.16z" />
<glyph unicode="&#xe97b;" glyph-name="arrow_up-down-bold" data-tags="arrow_up-down-bold" horiz-adv-x="576" d="M498.28 341.773l-162.28-162.28v528.48l162.28-162.28 67.88 67.88-278.16 278.16-278.16-278.16 67.88-67.88 162.28 162.28v-528.48l-162.28 162.28-67.88-67.88 278.16-278.16 278.16 278.16z" />
<glyph unicode="&#xe97c;" glyph-name="arrow_left-stop-bold" data-tags="arrow_left-stop-bold" horiz-adv-x="640" d="M96 763.733v-640h-96v640h96zM640 491.733h-328.24l162.28 162.28-67.88 67.88-278.16-278.16 278.16-278.16 67.88 67.88-162.28 162.28h328.24v96z" />
<glyph unicode="&#xe97d;" glyph-name="arrow_right-stop-bold" data-tags="arrow_right-stop-bold" horiz-adv-x="640" d="M544 123.733v640h96v-640h-96zM0 395.733h328.24l-162.28-162.28 67.88-67.88 278.16 278.16-278.16 278.16-67.88-67.88 162.28-162.28h-328.24v-96z" />
<glyph unicode="&#xe97e;" glyph-name="arrow_up-stop-bold" data-tags="arrow_up-stop-bold" horiz-adv-x="640" d="M640 667.733h-640v96h640v-96zM368 123.733v328.24l162.28-162.28 67.88 67.88-278.16 278.16-278.16-278.16 67.88-67.88 162.28 162.28v-328.24h96z" />
<glyph unicode="&#xe97f;" glyph-name="arrow_down-stop-bold" data-tags="arrow_down-stop-bold" horiz-adv-x="640" d="M0 219.733h640v-96h-640v96zM272 763.733v-328.24l-162.28 162.28-67.88-67.88 278.16-278.16 278.16 278.16-67.88 67.88-162.28-162.28v328.24h-96z" />
<glyph unicode="&#xe980;" glyph-name="arrow_signin-bold" data-tags="arrow_signin-bold" horiz-adv-x="768" d="M0 395.733h328.24l-162.28-162.28 67.88-67.88 278.16 278.16-278.16 278.16-67.88-67.88 162.28-162.28h-328.24zM576 763.733v-96h96v-448h-96v-96h192v640h-192z" />
<glyph unicode="&#xe981;" glyph-name="arrow_signout-bold" data-tags="arrow_signout-bold" horiz-adv-x="768" d="M256 395.733h328.24l-162.28-162.28 67.88-67.88 278.16 278.16-278.16 278.16-67.88-67.88 162.28-162.28h-328.24zM96 667.733h96v96h-192v-640h192v96h-96v448z" />
<glyph unicode="&#xe982;" glyph-name="arrow_upload-bold" data-tags="arrow_upload-bold" horiz-adv-x="640" d="M368 315.733v328.24l162.28-162.28 67.88 67.88-278.16 278.16-278.16-278.16 67.88-67.88 162.28 162.28v-328.24zM0 59.733v192h96v-96h448v96h96v-192h-640z" />
<glyph unicode="&#xe983;" glyph-name="blank_line" data-tags="blank_line" horiz-adv-x="640" d="M192 763.733v-448h448v448h-448zM256 379.733v320h320v-320h-320zM448 251.733v-128h-448v448h128v-64h-64v-320h320v64h64z" />
<glyph unicode="&#xe984;" glyph-name="blank_window" data-tags="blank_window" horiz-adv-x="768" d="M64 635.733v-448h576v-64h-640v512h64zM768 763.733v-512h-640v512h640zM704 315.733v320h-512v-320h512z" />
<glyph unicode="&#xe985;" glyph-name="blank_arrow-line" data-tags="blank_arrow-line" horiz-adv-x="768" d="M640 315.733v-256h-640v640h256v-64h-192v-512h512v192h64zM320 827.733v-64h338.74l-444.78-444.78 45.26-45.26 444.78 444.78v-338.74h64v448h-448z" />
<glyph unicode="&#xe986;" glyph-name="blank_external-box" data-tags="blank_external-box" horiz-adv-x="832" d="M832 859.733v-448h-64v338.74l-380.78-380.78-45.26 45.26 380.78 380.78h-338.74v64h448zM768 155.733c0-35.28-28.72-64-64-64h-576c-35.28 0-64 28.72-64 64v576c0 35.28 28.72 64 64 64h128v64h-128c-70.7 0-128-57.3-128-128v-576c0-70.7 57.3-128 128-128h576c70.7 0 128 57.3 128 128v128h-64v-128z" />
<glyph unicode="&#xe987;" glyph-name="blank_external" data-tags="blank_external" horiz-adv-x="832" d="M693.020 731.733v-448h-64v338.74l-444.78-444.78-45.26 45.26 444.78 444.78h-338.74v64h448zM704 795.733h-576c-35.28 0-64-28.72-64-64v-576c0-35.28 28.72-64 64-64h576c35.28 0 64 28.72 64 64v576c0 35.28-28.72 64-64 64zM704 859.733c70.7 0 128-57.3 128-128v-576c0-70.7-57.3-128-128-128h-576c-70.7 0-128 57.3-128 128v576c0 70.7 57.3 128 128 128h576z" />
<glyph unicode="&#xe988;" glyph-name="blank_bold-line" data-tags="blank_bold-line" horiz-adv-x="768" d="M256 827.733v-512h512v512h-512zM384 443.733v256h256v-256h-256zM576 251.733v-192h-576v576h192v-128h-64v-320h320v64h128z" />
<glyph unicode="&#xe989;" glyph-name="blank_bold-window" data-tags="blank_bold-window" d="M128 635.733v-512h640v-128h-768v640h128zM1024 891.733v-640h-768v640h768zM880 379.733v320h-496v-320h496z" />
<glyph unicode="&#xe98a;" glyph-name="blank_bold-arrow-line" data-tags="blank_bold-arrow-line" horiz-adv-x="768" d="M512 315.733h128v-256h-640v640h256v-128h-128v-384h384v128zM320 827.733v-128h210.74l-348.78-348.78 109.26-109.26 348.78 348.78v-210.74h128v448h-448z" />
<glyph unicode="&#xe98b;" glyph-name="blank_bold-external-box" data-tags="blank_bold-external-box" horiz-adv-x="832" d="M384 859.733v-128h210.74l-348.78-348.78 109.26-109.26 348.78 348.78v-210.74h128v448zM736 283.733v-101.34c0-32.34-26.32-58.66-58.66-58.66h-522.68c-32.34 0-58.66 26.32-58.66 58.66v522.68c0 32.34 26.32 58.66 58.66 58.66h101.34v96h-128c-70.7 0-128-57.3-128-128v-576c0-70.7 57.3-128 128-128h576c70.7 0 128 57.3 128 128v128h-96z" />
<glyph unicode="&#xe98c;" glyph-name="blank_bold-external" data-tags="blank_bold-external" horiz-adv-x="832" d="M704 859.733h-576c-70.7 0-128-57.3-128-128v-576c0-70.7 57.3-128 128-128h576c70.7 0 128 57.3 128 128v576c0 70.7-57.3 128-128 128v0zM693.020 731.733v-448h-128v210.74l-348.78-348.78-109.26 109.26 348.78 348.78h-210.74v128h448z" />
<glyph unicode="&#xe98d;" glyph-name="icons_envelope" data-tags="icons_envelope" d="M1024 552.033l-193.86-139.22 193.86-139.22zM456 303.353c33.5-24.040 78.5-24.040 111.98 0l456 327.48v160.9h-1023.98v-160.9l456-327.48zM193.86 412.813l-193.86 139.22v-278.44zM775.28 373.413l-169.96-122.060c-27.92-20.040-60.62-30.060-93.32-30.060s-65.42 10.020-93.32 30.060l-169.96 122.060-248.72-178.62v-107.060h1024v107.060l-248.72 178.62z" />
<glyph unicode="&#xe98e;" glyph-name="icons_envelope-regular" data-tags="icons_envelope-regular" d="M1024 791.733h-1024v-704h1024v704zM960 325.293l-121.86 87.52 121.86 87.52v-175.040zM64 727.733h896v-148.62l-384-275.76c-33.5-24.060-78.5-24.040-112 0l-400 287.26v137.12zM64 511.813l137.86-99-137.86-99v198zM960 151.733h-896v83.28l192.72 138.4 169.96-122.060c27.92-20.040 60.62-30.060 93.32-30.060s65.42 10.020 93.32 30.060l169.96 122.060 176.72-126.9v-94.78z" />
<glyph unicode="&#xe98f;" glyph-name="icons_envelope-light" data-tags="icons_envelope-light" d="M1024 791.733h-1024v-704h1024v704zM992 276.873l-189.28 135.94 189.28 135.94v-271.88zM32 759.733h960v-171.58l-414.68-297.8c-39.080-28.060-91.58-28.060-130.66 0l-414.66 297.8v171.58zM32 548.753l189.28-135.94-189.28-135.94v271.88zM992 119.733h-960v117.74l216.72 155.64 179.28-128.76c25.12-18.040 54.56-27.060 84-27.060s58.88 9.020 84 27.060l179.28 128.76 216.72-155.64v-117.74z" />
<glyph unicode="&#xe990;" glyph-name="icons_global" data-tags="icons_global" d="M332.38 726.773c46.72-8.96 96.44-14.38 147.62-15.92v207.46c-43.94-14.74-86.56-59.16-120.4-126.86-10.080-20.14-19.18-41.8-27.22-64.68zM691.36 727.453c-8 22.64-17 44.060-26.98 64.020-33.84 67.68-76.46 112.1-120.38 126.84v-207.32c51.2 1.72 100.82 7.32 147.36 16.46zM288.52 475.733h191.48v171.1c-57.46 1.64-113.42 7.94-166.020 18.44-14.66-58.44-23.36-122.64-25.46-189.54zM314.16 221.493c52.44 10.7 108.34 17.18 165.84 19.020v171.22h-191.48c2.12-67.18 10.86-131.62 25.64-190.24zM924.36 745.793c-43.2-26.58-94.96-48.36-152.4-64.72 15.98-63.62 25.4-133.18 27.54-205.36h223.48c-6.22 100.86-41.62 193.8-97.9 270.52l-0.72-0.44zM799.5 411.733c-2.14-71.8-11.46-141.020-27.3-204.36 57.040-15.94 108.64-37.2 151.86-63.14l2.24-1.34c55.56 76.38 90.5 168.72 96.68 268.84h-223.48zM480-30.847v207.32c-51.2-1.72-100.82-7.32-147.38-16.46 8-22.64 17-44.060 26.98-64.020 33.84-67.68 76.46-112.1 120.4-126.84zM721.62 820.093c12.080-24.16 22.84-50.2 32.26-77.74 48.66 13.82 92.6 31.84 129.7 53.62-67.44 71.12-155.080 122.88-253.74 146.12 34.36-28.34 65.48-69.42 91.78-122zM302.36 67.373c-12.080 24.16-22.84 50.2-32.26 77.74-48.64-13.82-92.58-31.84-129.68-53.62 67.44-71.12 155.060-122.88 253.72-146.12-34.38 28.34-65.5 69.42-91.78 122zM691.6 160.693c-46.72 8.96-96.42 14.38-147.6 15.9v-207.46c43.92 14.74 86.54 59.16 120.38 126.86 10.080 20.16 19.18 41.82 27.22 64.7zM224.5 411.733h-223.48c6.22-100.86 41.62-193.8 97.9-270.52l0.72 0.44c43.2 26.58 94.96 48.36 152.38 64.7-15.98 63.64-25.38 133.2-27.52 205.38zM754.22 146.073c-9.5-27.9-20.38-54.26-32.6-78.7-26.3-52.58-57.42-93.66-91.78-122 99.34 23.4 187.5 75.72 255.12 147.6-37.46 21.62-81.76 39.48-130.74 53.1zM224.5 475.733c2.14 71.8 11.46 141.020 27.28 204.36-57.040 15.94-108.64 37.2-151.84 63.14l-2.24 1.34c-55.56-76.38-90.5-168.7-96.68-268.84h223.48zM269.76 741.393c9.5 27.9 20.36 54.26 32.58 78.7 26.3 52.58 57.42 93.66 91.78 122-99.32-23.4-187.46-75.72-255.080-147.58 37.46-21.64 81.76-39.5 130.72-53.12zM735.48 411.733h-191.48v-171.1c57.46-1.64 113.42-7.94 166.020-18.44 14.66 58.44 23.36 122.64 25.46 189.54zM709.84 665.973c-52.44-10.7-108.32-17.18-165.84-19.020v-171.22h191.48c-2.12 67.16-10.88 131.62-25.64 190.24z" />
<glyph unicode="&#xe991;" glyph-name="icons_globe-regular" data-tags="icons_globe-regular" d="M874.040 805.773c-96.7 96.7-225.28 149.96-362.040 149.96s-265.34-53.26-362.040-149.96-149.96-225.28-149.96-362.040 53.26-265.34 149.96-362.040 225.28-149.96 362.040-149.96 265.34 53.26 362.040 149.96 149.96 225.28 149.96 362.040-53.26 265.34-149.96 362.040zM476 698.613c-42.36 1.64-83.54 6.16-122.52 13.34 6.74 18.4 14.22 35.88 22.42 52.28 28.58 57.16 63.76 95.98 100.1 111.68v-177.3zM476 626.573v-146.84h-165.3c2.2 57.38 9.68 112.48 21.94 163.020 45.62-8.88 93.86-14.38 143.36-16.18zM476 407.733v-146.84c-49.54-1.8-97.78-7.28-143.38-16.14-12.26 50.52-19.72 105.62-21.92 162.98h165.3zM476 188.853v-177.3c-36.34 15.7-71.52 54.52-100.1 111.68-8.2 16.4-15.68 33.9-22.44 52.3 38.96 7.18 80.14 11.7 122.54 13.32zM548 188.853c42.36-1.64 83.54-6.16 122.5-13.34-6.74-18.4-14.24-35.88-22.44-52.28-28.58-57.16-63.76-95.98-100.080-111.68v177.3zM548 260.893v146.84h165.3c-2.2-57.38-9.68-112.48-21.94-163.020-45.62 8.88-93.86 14.38-143.36 16.18zM548 479.733v146.84c49.54 1.8 97.78 7.28 143.36 16.14 12.26-50.52 19.74-105.62 21.94-162.98h-165.3zM548 698.613v177.28c36.32-15.7 71.48-54.52 100.080-111.68 8.2-16.4 15.68-33.9 22.44-52.3-38.94-7.16-80.12-11.68-122.52-13.3zM712.48 796.413c-9.84 19.68-20.42 37.66-31.64 53.88 51.3-21.3 98.5-52.48 139.28-92.5-24.24-11.26-50.78-21.060-79.1-29.3-8.42 24-17.94 46.72-28.54 67.92zM311.5 796.413c-10.6-21.18-20.12-43.9-28.52-67.88-28.32 8.24-54.84 18.040-79.080 29.28 40.76 40 87.94 71.16 139.22 92.46-11.2-16.2-21.78-34.18-31.62-53.86zM262.7 659.593c-13.58-56.060-21.78-116.86-24.040-179.86h-165.2c6.48 80.62 34.7 156.8 81.82 221.72 32.26-16.48 68.42-30.52 107.42-41.86zM238.66 407.733c2.26-62.98 10.46-123.78 24.040-179.84-38.98-11.34-75.12-25.4-107.4-41.9-47.12 64.92-75.34 141.12-81.84 221.74h165.2zM282.96 158.973c8.42-23.98 17.94-46.72 28.54-67.92 9.84-19.68 20.42-37.66 31.62-53.88-51.3 21.3-98.48 52.48-139.24 92.5 24.22 11.26 50.76 21.060 79.080 29.3zM712.48 91.053c10.6 21.18 20.12 43.9 28.54 67.88 28.32-8.24 54.86-18.040 79.1-29.28-40.78-40.020-87.96-71.18-139.26-92.48 11.2 16.22 21.76 34.18 31.62 53.88zM761.3 227.873c13.58 56.060 21.8 116.86 24.060 179.86h165.18c-6.48-80.62-34.7-156.8-81.82-221.72-32.26 16.48-68.44 30.52-107.42 41.86zM785.34 479.733c-2.26 62.98-10.46 123.78-24.040 179.84 38.98 11.34 75.12 25.4 107.4 41.9 47.12-64.92 75.34-141.12 81.82-221.74h-165.18z" />
<glyph unicode="&#xe992;" glyph-name="icons_globe-light" data-tags="icons_globe-light" d="M512 955.733c-136.76 0-265.34-53.26-362.040-149.96s-149.96-225.28-149.96-362.040 53.26-265.34 149.96-362.040 225.28-149.96 362.040-149.96 265.34 53.26 362.040 149.96 149.96 225.28 149.96 362.040-53.26 265.34-149.96 362.040-225.28 149.96-362.040 149.96zM851.42 783.153c5.96-5.96 11.74-12.060 17.34-18.28-38.26-20.74-82.96-37.74-132.040-50.5-9.94 31.18-21.64 60.44-35.060 87.24-23.44 46.88-50.82 83.82-80.82 109.76 86.62-19.98 166.16-63.8 230.58-128.22zM528 655.193c65.14 1.020 128.3 8.28 186.62 21.060 17.94-65.86 28.020-139.6 29.24-216.52h-215.86v195.46zM528 687.213v235.34c53.98-7.84 104.98-55.16 145.040-135.26 12.36-24.7 23.2-51.64 32.46-80.34-55.38-11.94-115.44-18.74-177.5-19.74zM496 922.553v-235.34c-61.98 1-122.060 7.8-177.5 19.78 9.26 28.7 20.1 55.62 32.44 80.32 40.060 80.1 91.060 127.42 145.060 135.24zM496 655.213v-195.48h-215.86c1.22 76.94 11.3 150.68 29.24 216.54 58.36-12.8 121.56-20.040 186.62-21.060zM248.14 459.733h-215.84c3.34 102.88 38.92 200.18 101.92 280.2 41.46-23.22 90.34-42.14 144.060-56.18-18.54-68.38-28.9-144.68-30.14-224.020zM248.14 427.733c1.24-79.34 11.6-155.6 30.12-224-53.72-14.040-102.54-32.98-144.040-56.22-63 80.040-98.58 177.32-101.92 280.2h215.84zM280.14 427.733h215.86v-195.46c-65.14-1.020-128.3-8.28-186.62-21.060-17.94 65.86-28 139.6-29.24 216.52zM496 200.253v-235.36c-54 7.84-105 55.14-145.060 135.26-12.34 24.7-23.18 51.64-32.44 80.34 55.38 11.96 115.44 18.76 177.5 19.76zM528-35.087v235.34c61.98-1 122.060-7.8 177.48-19.78-9.26-28.7-20.1-55.62-32.46-80.32-40.040-80.1-91.040-127.42-145.020-135.24zM528 232.253v195.48h215.86c-1.22-76.92-11.3-150.68-29.24-216.54-58.38 12.8-121.56 20.040-186.62 21.060zM775.86 427.733h215.84c-3.34-102.88-38.92-200.18-101.92-280.2-41.46 23.22-90.34 42.14-144.060 56.18 18.52 68.4 28.9 144.68 30.14 224.020zM775.86 459.733c-1.24 79.32-11.6 155.6-30.14 224 53.72 14.040 102.56 32.98 144.060 56.22 63-80.040 98.58-177.32 101.92-280.2h-215.84zM403.14 911.373c-30-25.96-57.38-62.88-80.82-109.76-13.4-26.8-25.1-56.040-35.040-87.2-49.080 12.76-93.8 29.74-132.040 50.46 5.6 6.22 11.38 12.32 17.34 18.28 64.42 64.42 143.94 108.24 230.56 128.22zM172.58 104.313c-5.96 5.96-11.74 12.060-17.34 18.28 38.26 20.74 82.96 37.74 132.040 50.5 9.92-31.18 21.64-60.44 35.040-87.24 23.44-46.88 50.82-83.82 80.82-109.76-86.62 19.98-166.14 63.8-230.56 128.22zM620.84-23.927c30 25.96 57.38 62.88 80.82 109.76 13.4 26.8 25.12 56.040 35.040 87.2 49.080-12.76 93.82-29.74 132.060-50.46-5.6-6.22-11.38-12.32-17.34-18.28-64.42-64.4-143.96-108.22-230.58-128.22z" />
<glyph unicode="&#xe993;" glyph-name="condition_plus" data-tags="condition_plus" horiz-adv-x="704" d="M320 91.733h64v320h320v64h-320v320h-64v-320h-320v-64h320z" />
<glyph unicode="&#xe994;" glyph-name="condition_plus-light" data-tags="condition_plus-light" horiz-adv-x="704" d="M336 91.733h32v336h336v32h-336v336h-32v-336h-336v-32h336z" />
<glyph unicode="&#xe995;" glyph-name="condition_plus-bold" data-tags="condition_plus-bold" horiz-adv-x="704" d="M288 91.733h128v288h288v128h-288v288h-128v-288h-288v-128h288z" />
<glyph unicode="&#xe996;" glyph-name="arrow_download-bold" data-tags="arrow_download-bold" horiz-adv-x="640" d="M272 827.733v-328.24l-162.28 162.28-67.88-67.88 278.16-278.16 278.16 278.16-67.88 67.88-162.28-162.28v328.24zM544 155.733h-448v96h-96v-192h640v192h-96v-96z" />
<glyph unicode="&#xe997;" glyph-name="local_download" data-tags="local_download" d="M300 955.733v-384h-172l384-384 384 384h-176v384zM704 251.733l-192-192-192 192h-320v-320h1024v320h-320zM736-14.267c-23.2 0-42 18.8-42 42s18.8 42 42 42 42-18.8 42-42c0-23.2-18.8-42-42-42zM864-14.267c-23.2 0-42 18.8-42 42s18.8 42 42 42 42-18.8 42-42c0-23.2-18.8-42-42-42z" />
<glyph unicode="&#xe998;" glyph-name="local_upload" data-tags="local_upload" d="M724 187.733v384h172l-384 384-384-384h176v-384zM788 251.733v-128h-548v128h-240v-320h1024v320h-236zM736-14.267c-23.2 0-42 18.8-42 42s18.8 42 42 42 42-18.8 42-42-18.8-42-42-42zM864-14.267c-23.2 0-42 18.8-42 42s18.8 42 42 42 42-18.8 42-42-18.8-42-42-42z" />
<glyph unicode="&#xe999;" glyph-name="local_download-light" data-tags="local_download-light" d="M894.48 571.733h-190.48v384h-384v-384h-190.46l382.46-384.7 382.48 384.7zM352 539.733v384h320v-384h145.54l-305.54-307.3-305.54 307.3h145.54zM704 283.733l-32-32h320v-288h-960v288h320l-32 32h-320v-352h1024v352zM768 91.733c0-17.673-14.327-32-32-32s-32 14.327-32 32c0 17.673 14.327 32 32 32s32-14.327 32-32zM896 91.733c0-17.673-14.327-32-32-32s-32 14.327-32 32c0 17.673 14.327 32 32 32s32-14.327 32-32z" />
<glyph unicode="&#xe99a;" glyph-name="local_upload-light" data-tags="local_upload-light" d="M129.54 571.053h190.46v-384h384v384h190.46l-382.46 384.68-382.46-384.68zM672 603.033v-384h-320v384h-145.54l305.54 307.32 305.54-307.3h-145.54zM768 283.733v-32h224v-288h-960v288h224v32h-256v-352h1024v352zM768 91.733c0-17.673-14.327-32-32-32s-32 14.327-32 32c0 17.673 14.327 32 32 32s32-14.327 32-32zM896 91.733c0-17.673-14.327-32-32-32s-32 14.327-32 32c0 17.673 14.327 32 32 32s32-14.327 32-32z" />
<glyph unicode="&#xe99b;" glyph-name="local_download-bold" data-tags="local_download-bold" d="M736 315.733l-64-64h288v-256h-896v256h288l-64 64h-288v-384h1024v384zM778 91.733c0-23.196-18.804-42-42-42s-42 18.804-42 42c0 23.196 18.804 42 42 42s42-18.804 42-42zM906 91.733c0-23.196-18.804-42-42-42s-42 18.804-42 42c0 23.196 18.804 42 42 42s42-18.804 42-42zM512 187.733l-384 420h192v348h384v-348h192l-384-420zM272 543.733l240-260 240 260h-112v348h-256v-348h-112z" />
<glyph unicode="&#xe99c;" glyph-name="local_upload-bold" data-tags="local_upload-bold" d="M768 315.733v-64h192v-256h-896v256h192v64h-256v-384h1024v384zM778 91.733c0-23.196-18.804-42-42-42s-42 18.804-42 42c0 23.196 18.804 42 42 42s42-18.804 42-42zM906 91.733c0-23.196-18.804-42-42-42s-42 18.804-42 42c0 23.196 18.804 42 42 42s42-18.804 42-42zM512 955.733l384-420h-192v-348h-384v348h-192l384 420zM752 599.733l-240 260-240-260h112v-348h256v348h112z" />
<glyph unicode="&#xe99d;" glyph-name="search_regular" data-tags="search_regular" d="M755.92 267.693h-25.2c63.1 72.94 101.28 168.020 101.28 272.040 0 229.76-186.24 416-416 416s-416-186.24-416-416 186.24-416 416-416c104.020 0 199.1 38.18 272.040 101.28v-25.2l268.080-268.080 19.8 2.82 45.26 45.26 2.82 19.8-268.080 268.080zM416 186.733c-194.96 0-353 158.040-353 353s158.040 353 353 353 353-158.040 353-353-158.040-353-353-353z" />
<glyph unicode="&#xe99e;" glyph-name="search_plus-regular" data-tags="search_plus-regular" d="M755.92 267.693h-25.2c63.1 72.94 101.28 168.020 101.28 272.040 0 229.76-186.24 416-416 416s-416-186.24-416-416 186.24-416 416-416c104.020 0 199.1 38.18 272.040 101.28v-25.2l268.080-268.080 19.8 2.82 45.26 45.26 2.82 19.8-268.080 268.080zM416 186.733c-194.96 0-353 158.040-353 353s158.040 353 353 353 353-158.040 353-353-158.040-353-353-353zM448 571.733h192v-64h-192v-192h-64v192h-192v64h192v192h64v-192z" />
<glyph unicode="&#xe99f;" glyph-name="search_minus-regular" data-tags="search_minus-regular" d="M755.92 267.693h-25.2c63.1 72.94 101.28 168.020 101.28 272.040 0 229.76-186.24 416-416 416s-416-186.24-416-416 186.24-416 416-416c104.020 0 199.1 38.18 272.040 101.28v-25.2l268.080-268.080 19.8 2.82 45.26 45.26 2.82 19.8-268.080 268.080zM416 186.733c-194.96 0-353 158.040-353 353s158.040 353 353 353 353-158.040 353-353-158.040-353-353-353zM192 571.733h448v-64h-448v64z" />
<glyph unicode="&#xe9a0;" glyph-name="search_light" data-tags="search_light" d="M745.92 255.053h-26.62c69.88 74.42 112.7 174.54 112.7 284.68 0 229.76-186.24 416-416 416s-416-186.24-416-416 186.24-416 416-416c110.14 0 210.26 42.82 284.68 112.68v-26.62l278.060-278.060 19.8 2.82 22.62 22.62 2.82 19.8-278.060 278.080zM416 155.733c-212.080 0-384 171.92-384 384s171.92 384 384 384 384-171.92 384-384-171.92-384-384-384z" />
<glyph unicode="&#xe9a1;" glyph-name="search_minus-light" data-tags="search_minus-light" d="M745.92 255.053h-26.62c69.88 74.42 112.7 174.54 112.7 284.68 0 229.76-186.24 416-416 416s-416-186.24-416-416 186.24-416 416-416c110.14 0 210.26 42.82 284.68 112.68v-26.62l278.060-278.060 19.8 2.82 22.62 22.62 2.82 19.8-278.060 278.080zM416 155.733c-212.080 0-384 171.92-384 384s171.92 384 384 384 384-171.92 384-384-171.92-384-384-384zM192 555.733h448v-32h-448v32z" />
<glyph unicode="&#xe9a2;" glyph-name="search_plus-light" data-tags="search_plus-light" d="M745.92 255.053h-26.62c69.88 74.42 112.7 174.54 112.7 284.68 0 229.76-186.24 416-416 416s-416-186.24-416-416 186.24-416 416-416c110.14 0 210.26 42.82 284.68 112.68v-26.62l278.060-278.060 19.8 2.82 22.62 22.62 2.82 19.8-278.060 278.080zM416 155.733c-212.080 0-384 171.92-384 384s171.92 384 384 384 384-171.92 384-384-171.92-384-384-384zM432 555.733h208v-32h-208v-208h-32v208h-208v32h208v208h32v-208z" />
<glyph unicode="&#xe9a3;" glyph-name="search_bold" data-tags="search_bold" d="M786.42 282.453l-35.54 10.46c50.96 69.040 81.12 154.4 81.12 246.82 0 229.76-186.24 416-416 416s-416-186.24-416-416 186.24-416 416-416c92.42 0 177.78 30.16 246.82 81.12l10.46-35.54 237.58-237.58h33.94l79.2 79.2v33.94l-237.58 237.58zM416 251.733c-159.060 0-288 128.94-288 288s128.94 288 288 288 288-128.94 288-288-128.94-288-288-288z" />
<glyph unicode="&#xe9a4;" glyph-name="search_minus-bold" data-tags="search_minus-bold" d="M786.42 282.453l-35.54 10.46c50.96 69.040 81.12 154.4 81.12 246.82 0 229.76-186.24 416-416 416s-416-186.24-416-416 186.24-416 416-416c92.42 0 177.78 30.16 246.82 81.12l10.46-35.54 237.58-237.58h33.94l79.2 79.2v33.94l-237.58 237.58zM416 251.733c-159.060 0-288 128.94-288 288s128.94 288 288 288 288-128.94 288-288-128.94-288-288-288zM640 587.733v-96h-448v96h448z" />
<glyph unicode="&#xe9a5;" glyph-name="search_plus-bold" data-tags="search_plus-bold" d="M786.42 282.453l-35.54 10.46c50.96 69.040 81.12 154.4 81.12 246.82 0 229.76-186.24 416-416 416s-416-186.24-416-416 186.24-416 416-416c92.42 0 177.78 30.16 246.82 81.12l10.46-35.54 237.58-237.58h33.94l79.2 79.2v33.94l-237.58 237.58zM416 251.733c-159.060 0-288 128.94-288 288s128.94 288 288 288 288-128.94 288-288-128.94-288-288-288zM640 587.733v-96h-176v-176h-96v176h-176v96h176v176h96v-176h176z" />
<glyph unicode="&#xe9a6;" glyph-name="document_icon-pdf" data-tags="document_icon-pdf" d="M656.58 401.173c56.1 7.5 180.62 19.8 221.12-20.1v0c31.2-31.2 27.6-122.1-55.5-121.8-51 0-128.1 23.7-193.82 59.7-77.7-12.6-165.92-45.6-246.020-72-36-62.1-66.6-106.8-93.9-136.5-90.6-99-169.82-31.2-159.32 19.2 14.1 69.3 114 125.1 176.42 157.22 37.2 65.1 90.6 180.62 126.3 265.82-26.1 100.2-40.2 178.52-25.2 233.42 14.7 53.7 120.6 63.9 133.8-20.4 16.8-53.1-6.3-140.7-19.2-194.72 29.72-78.62 71.72-131.44 135.32-169.84zM190.060 114.053c0-2.1 40.2 16.5 106.5 122.4-20.7-19.18-88.8-74.68-106.5-122.4zM475.68 781.013c-8.7 0-9.3-93.9 6.3-142.8 17.1 30.28 19.8 142.8-6.3 142.8zM476.88 494.193c-23.4-61.5-52.5-131.7-86.4-191.12 55.5 21.3 118.8 52.5 191.72 66.6-39.020 29.4-76.22 71.4-105.32 124.52zM850.7 320.773c12.6 8.1-7.5 36.3-130.5 27.3 113.1-48.3 130.5-27.3 130.5-27.3z" />
<glyph unicode="&#xe9a7;" glyph-name="document_file-pdf" data-tags="document_file-pdf" horiz-adv-x="768" d="M364.2 445.533c-10.4 32.6-10 95.2-4.2 95.2 17.4 0 15.6-75 4.2-95.2zM360.8 349.533c-15.6-41-35-87.8-57.6-127.4 37 14.2 79.2 35 127.8 44.4-26 19.6-50.8 47.6-70.2 83zM512 955.733v-256h256l-256 256zM169.6 96.133c0-1.4 26.8 11 71 81.6-13.8-12.8-59.2-49.8-71-81.6zM448 635.733h320v-704h-768v1024h448v-320zM390.4 400.733c8.6 36 24 94.4 12.8 129.8-8.8 56.2-79.4 49.4-89.2 13.6-10-36.6-0.6-88.8 16.8-155.6-23.8-56.8-59.4-133.8-84.2-177.2-41.6-21.4-108.2-58.6-117.6-104.8-7-33.6 45.8-78.8 106.2-12.8 18.2 19.8 38.6 49.6 62.6 91 53.4 17.6 112.2 39.6 164 48 43.8-24 95.2-39.8 129.2-39.8 55.4-0.2 57.8 60.4 37 81.2v0c-27 26.6-110 18.4-147.4 13.4-42.4 25.6-70.4 60.8-90.2 113.2zM610 233.933c8.4 5.4-5 24.2-87 18.2 75.4-32.2 87-18.2 87-18.2z" />
<glyph unicode="&#xe9a8;" glyph-name="document_file-pdf-border" data-tags="document_file-pdf-border" horiz-adv-x="768" d="M628 274.133c-27 26.6-110 18.4-147.4 13.4-42.4 25.6-70.4 60.8-90.2 113.2 8.6 36 24 94.4 12.8 129.8-8.8 56.2-79.4 49.4-89.2 13.6-10-36.6-0.6-88.8 16.8-155.6-23.8-56.8-59.4-133.8-84.2-177.2-41.6-21.4-108.2-58.6-117.6-104.8-7-33.6 45.8-78.8 106.2-12.8 18.2 19.8 38.6 49.6 62.6 91 53.4 17.6 112.2 39.6 164 48 43.8-24 95.2-39.8 129.2-39.8 55.4-0.2 57.8 60.4 37 81.2v0zM169.6 96.133c11.8 31.8 57.2 68.8 71 81.6-44.2-70.6-71-83-71-81.6zM360 540.733c17.4 0 15.6-75 4.2-95.2-10.4 32.6-10 95.2-4.2 95.2zM303.2 230.133c22.6 39.6 42 86.4 57.6 127.4 19.4-35.4 44.2-63.4 70.2-83-48.6-9.4-90.8-30.2-127.8-44.4zM610 233.933c0 0-11.6-14-87 18.2 82 6 95.4-12.8 87-18.2zM512 955.733h-512v-1024h768v768l-256 256zM677.5 699.733h-165.5v165.5l165.5-165.5zM704-4.267h-640v896h384v-256h256v-640z" />
<glyph unicode="&#xe9a9;" glyph-name="document_file-pdf-border-light" data-tags="document_file-pdf-border-light" horiz-adv-x="768" d="M628 338.133c-27 26.6-110 18.4-147.4 13.4-42.4 25.6-70.4 60.8-90.2 113.2 8.6 36 24 94.4 12.8 129.8-8.8 56.2-79.4 49.4-89.2 13.6-10-36.6-0.6-88.8 16.8-155.6-23.8-56.8-59.4-133.8-84.2-177.2-41.6-21.4-108.2-58.6-117.6-104.8-7-33.6 45.8-78.8 106.2-12.8 18.2 19.8 38.6 49.6 62.6 91 53.4 17.6 112.2 39.6 164 48 43.8-24 95.2-39.8 129.2-39.8 55.4-0.2 57.8 60.4 37 81.2v0zM169.6 160.133c11.8 31.8 57.2 68.8 71 81.6-44.2-70.6-71-83-71-81.6zM360 604.733c17.4 0 15.6-75 4.2-95.2-10.4 32.6-10 95.2-4.2 95.2zM303.2 286.133c22.6 39.6 42 86.4 57.6 127.4 19.4-35.4 44.2-63.4 70.2-83-48.6-9.4-90.8-30.2-127.8-44.4zM610 297.933c0 0-11.6-14-87 18.2 82 6 95.4-12.8 87-18.2zM512 955.733h-512v-1024h768v768l-256 256zM709.5 699.733h-197.5v197.5l197.5-197.5zM736-36.267h-704v960h448v-256h256v-704z" />
<glyph unicode="&#xe9aa;" glyph-name="document_icon-pdf-border-square" data-tags="document_icon-pdf-border-square" horiz-adv-x="896" d="M691.78 401.973c-27 26.6-110 18.4-147.4 13.4-42.4 25.6-70.4 60.8-90.2 113.2 8.6 36 24 94.4 12.8 129.8-8.8 56.2-79.4 49.4-89.2 13.6-10-36.6-0.6-88.8 16.8-155.6-23.8-56.8-59.4-133.8-84.2-177.2-41.6-21.4-108.2-58.6-117.6-104.8-7-33.6 45.8-78.8 106.2-12.8 18.2 19.8 38.6 49.6 62.6 91 53.4 17.6 112.2 39.6 164 48 43.8-24 95.2-39.8 129.2-39.8 55.4-0.2 57.8 60.4 37 81.2v0zM233.38 223.973c11.8 31.8 57.2 68.8 71 81.6-44.2-70.6-71-83-71-81.6zM423.78 668.573c17.4 0 15.6-75 4.2-95.2-10.4 32.6-10 95.2-4.2 95.2zM366.98 349.973c22.6 39.6 42 86.4 57.6 127.4 19.4-35.4 44.2-63.4 70.2-83-48.6-9.4-90.8-30.2-127.8-44.4zM673.78 361.773c0 0-11.6-14-87 18.2 82 6 95.4-12.8 87-18.2zM768 827.733h-640c-35.28 0-64-28.72-64-64v-640c0-35.28 28.72-64 64-64h640c35.28 0 64 28.72 64 64v640c0 35.28-28.72 64-64 64zM768 891.733c70.7 0 128-57.3 128-128v-640c0-70.7-57.3-128-128-128h-640c-70.7 0-128 57.3-128 128v640c0 70.7 57.3 128 128 128h640z" />
<glyph unicode="&#xe9ab;" glyph-name="document_icon-pdf-border-circle" data-tags="document_icon-pdf-border-circle" horiz-adv-x="896" d="M691.78 401.973c-27 26.6-110 18.4-147.4 13.4-42.4 25.6-70.4 60.8-90.2 113.2 8.6 36 24 94.4 12.8 129.8-8.8 56.2-79.4 49.4-89.2 13.6-10-36.6-0.6-88.8 16.8-155.6-23.8-56.8-59.4-133.8-84.2-177.2-41.6-21.4-108.2-58.6-117.6-104.8-7-33.6 45.8-78.8 106.2-12.8 18.2 19.8 38.6 49.6 62.6 91 53.4 17.6 112.2 39.6 164 48 43.8-24 95.2-39.8 129.2-39.8 55.4-0.2 57.8 60.4 37 81.2v0zM233.38 223.973c11.8 31.8 57.2 68.8 71 81.6-44.2-70.6-71-83-71-81.6zM423.78 668.573c17.4 0 15.6-75 4.2-95.2-10.4 32.6-10 95.2-4.2 95.2zM366.98 349.973c22.6 39.6 42 86.4 57.6 127.4 19.4-35.4 44.2-63.4 70.2-83-48.6-9.4-90.8-30.2-127.8-44.4zM673.78 361.773c0 0-11.6-14-87 18.2 82 6 95.4-12.8 87-18.2zM896 443.733c0-247.42-200.58-448-448-448s-448 200.58-448 448 200.58 448 448 448 448-200.58 448-448zM448 827.733c-212.080 0-384-171.92-384-384s171.92-384 384-384 384 171.92 384 384-171.92 384-384 384z" />
<glyph unicode="&#xe9ac;" glyph-name="attention_plus" data-tags="attention_plus" horiz-adv-x="320" d="M18.52 905.333l27.2-544c1.28-25.54 22.36-45.6 47.94-45.6h132.68c25.58 0 46.66 20.060 47.94 45.6l27.2 544c1.38 27.42-20.48 50.4-47.94 50.4h-187.080c-27.46 0-49.3-22.98-47.94-50.4zM320 91.733c0-88.36-71.64-160-160-160s-160 71.64-160 160 71.64 160 160 160 160-71.64 160-160z" />
<glyph unicode="&#xe9ad;" glyph-name="attention_exclamation-border-triangle" data-tags="attention_exclamation-border-triangle" d="M507 891.733c-23.22 0-46.44-11.48-59.72-34.46l-437.94-758.16c-26.54-45.94 6.64-103.38 59.72-103.38h875.88c53.080 0 86.26 57.44 59.72 103.38l-437.94 758.16c-13.28 22.98-36.5 34.46-59.72 34.46v0zM69.060 59.733c-1 0-2.88 0-4.3 2.48-1.42 2.44-0.52 3.98 0 4.9l437.94 758.14c0.5 0.86 1.42 2.48 4.3 2.48s3.8-1.6 4.3-2.48l437.94-758.16c0.52-0.92 1.42-2.44 0-4.9-1.42-2.48-3.3-2.48-4.3-2.48h-875.88zM450.1 549.693l11.9-238c0.56-11.18 9.78-19.96 20.98-19.96h58.040c11.2 0 20.42 8.78 20.98 19.96l11.9 238c0.6 12-8.96 22.040-20.98 22.040h-81.84c-12.020 0-21.58-10.060-20.98-22.040zM582 193.733c0-38.66-31.34-70-70-70s-70 31.34-70 70 31.34 70 70 70 70-31.34 70-70z" />
<glyph unicode="&#xe9ae;" glyph-name="attention_exclamation-border-square" data-tags="attention_exclamation-border-square" horiz-adv-x="896" d="M768 827.733h-640c-35.28 0-64-28.72-64-64v-640c0-35.28 28.72-64 64-64h640c35.28 0 64 28.72 64 64v640c0 35.28-28.72 64-64 64zM768 891.733c70.7 0 128-57.3 128-128v-640c0-70.7-57.3-128-128-128h-640c-70.7 0-128 57.3-128 128v640c0 70.7 57.3 128 128 128h640zM376.44 677.233l13.76-275.18c0.64-12.92 11.32-23.060 24.26-23.060h67.12c12.94 0 23.6 10.14 24.26 23.060l13.76 275.18c0.7 13.86-10.36 25.5-24.26 25.5h-94.64c-13.9 0-24.96-11.62-24.26-25.5zM528.94 265.673c0-44.7-36.24-80.94-80.94-80.94s-80.94 36.24-80.94 80.94 36.24 80.94 80.94 80.94 80.94-36.24 80.94-80.94z" />
<glyph unicode="&#xe9af;" glyph-name="document_icon-pdf-square" data-tags="document_icon-pdf-square" horiz-adv-x="896" d="M423.78 668.573c-5.8 0-6.2-62.6 4.2-95.2 11.4 20.2 13.2 95.2-4.2 95.2zM424.58 477.373c-15.6-41-35-87.8-57.6-127.4 37 14.2 79.2 35 127.8 44.4-26 19.6-50.8 47.6-70.2 83zM233.38 223.973c0-1.4 26.8 11 71 81.6-13.8-12.8-59.2-49.8-71-81.6zM768 891.733h-640c-70.7 0-128-57.3-128-128v-640c0-70.7 57.3-128 128-128h640c70.7 0 128 57.3 128 128v640c0 70.7-57.3 128-128 128zM654.78 320.773c-34 0-85.4 15.8-129.2 39.8-51.8-8.4-110.6-30.4-164-48-24-41.4-44.4-71.2-62.6-91-60.4-66-113.2-20.8-106.2 12.8 9.4 46.2 76 83.4 117.6 104.8 24.8 43.4 60.4 120.4 84.2 177.2-17.4 66.8-26.8 119-16.8 155.6 9.8 35.8 80.4 42.6 89.2-13.6 11.2-35.4-4.2-93.8-12.8-129.8 19.8-52.4 47.8-87.6 90.2-113.2 37.4 5 120.4 13.2 147.4-13.4v0c20.8-20.8 18.4-81.4-37-81.2zM586.78 379.973c75.4-32.2 87-18.2 87-18.2 8.4 5.4-5 24.2-87 18.2z" />
<glyph unicode="&#xe9b0;" glyph-name="document_icon-pdf-circle" data-tags="document_icon-pdf-circle" horiz-adv-x="896" d="M691.78 401.973c-27 26.6-110 18.4-147.4 13.4-42.4 25.6-70.4 60.8-90.2 113.2 8.6 36 24 94.4 12.8 129.8-8.8 56.2-79.4 49.4-89.2 13.6-10-36.6-0.6-88.8 16.8-155.6-23.8-56.8-59.4-133.8-84.2-177.2-41.6-21.4-108.2-58.6-117.6-104.8-7-33.6 45.8-78.8 106.2-12.8 18.2 19.8 38.6 49.6 62.6 91 53.4 17.6 112.2 39.6 164 48 43.8-24 95.2-39.8 129.2-39.8 55.4-0.2 57.8 60.4 37 81.2v0zM233.38 223.973c11.8 31.8 57.2 68.8 71 81.6-44.2-70.6-71-83-71-81.6zM423.78 668.573c17.4 0 15.6-75 4.2-95.2-10.4 32.6-10 95.2-4.2 95.2zM366.98 349.973c22.6 39.6 42 86.4 57.6 127.4 19.4-35.4 44.2-63.4 70.2-83-48.6-9.4-90.8-30.2-127.8-44.4zM673.78 361.773c0 0-11.6-14-87 18.2 82 6 95.4-12.8 87-18.2zM896 443.733c0-247.42-200.58-448-448-448s-448 200.58-448 448 200.58 448 448 448 448-200.58 448-448z" />
<glyph unicode="&#xe9b1;" glyph-name="document_icon-word" data-tags="document_icon-word" d="M826.5 827.733l-105.34-544-139.66 544h-131l-139.66-544-113.34 544h-194l192-768h192.7l127.8 464.8 127.94-464.8h192.88l183.68 768z" />
<glyph unicode="&#xe9b2;" glyph-name="document_file-word" data-tags="document_file-word" horiz-adv-x="768" d="M448 955.733h-448v-1024h768v704h-320v320zM488.58 235.733l52.66 272h97l-91.84-384h-96.44l-63.96 232.4-63.9-232.4h-96.36l-96 384h97l56.66-272 69.84 272h65.5l69.84-272zM768 699.733h-256v256l256-256z" />
<glyph unicode="&#xe9b3;" glyph-name="document_file-word-border" data-tags="document_file-word-border" horiz-adv-x="768" d="M512 955.733h-512v-1024h768v768l-256 256zM677.5 699.733h-165.5v165.5l165.5-165.5zM704-4.267h-640v896h384v-256h256v-640zM638.24 507.733l-91.84-384h-96.44l-63.96 232.4-63.9-232.4h-96.36l-96 384h97l56.66-272 69.84 272h65.5l69.84-272 52.66 272h97z" />
<glyph unicode="&#xe9b4;" glyph-name="document_file-word-border-light" data-tags="document_file-word-border-light" horiz-adv-x="768" d="M512 955.733h-512v-1024h768v768l-256 256zM709.5 699.733h-197.5v197.5l197.5-197.5zM736-36.267h-704v960h448v-256h256v-704zM638.24 507.733l-91.84-384h-96.44l-63.96 232.4-63.9-232.4h-96.36l-96 384h97l56.66-272 69.84 272h65.5l69.84-272 52.66 272h97z" />
<glyph unicode="&#xe9b5;" glyph-name="document_icon-word-border-square" data-tags="document_icon-word-border-square" horiz-adv-x="896" d="M702.24 635.733l-91.84-384h-96.44l-63.96 232.4-63.9-232.4h-96.36l-96 384h97l56.66-272 69.84 272h65.5l69.84-272 52.66 272h97zM768 827.733h-640c-35.28 0-64-28.72-64-64v-640c0-35.28 28.72-64 64-64h640c35.28 0 64 28.72 64 64v640c0 35.28-28.72 64-64 64zM768 891.733c70.7 0 128-57.3 128-128v-640c0-70.7-57.3-128-128-128h-640c-70.7 0-128 57.3-128 128v640c0 70.7 57.3 128 128 128h640z" />
<glyph unicode="&#xe9b6;" glyph-name="document_icon-word-border-circle" data-tags="document_icon-word-border-circle" horiz-adv-x="896" d="M702.24 635.733l-91.84-384h-96.44l-63.96 232.4-63.9-232.4h-96.36l-96 384h97l56.66-272 69.84 272h65.5l69.84-272 52.66 272h97zM896 443.733c0-247.42-200.58-448-448-448s-448 200.58-448 448 200.58 448 448 448 448-200.58 448-448zM448 827.733c-212.080 0-384-171.92-384-384s171.92-384 384-384 384 171.92 384 384-171.92 384-384 384z" />
<glyph unicode="&#xe9b7;" glyph-name="document_icon-word-square" data-tags="document_icon-word-square" horiz-adv-x="896" d="M768 891.733h-640c-70.7 0-128-57.3-128-128v-640c0-70.7 57.3-128 128-128h640c70.7 0 128 57.3 128 128v640c0 70.7-57.3 128-128 128zM610.42 251.733h-96.44l-63.98 232.4-63.9-232.4h-96.36l-96 384h97l56.66-272 69.84 272h65.5l69.84-272 52.66 272h97l-91.82-384z" />
<glyph unicode="&#xe9b8;" glyph-name="document_icon-word-circle" data-tags="document_icon-word-circle" horiz-adv-x="896" d="M448 891.733c-247.42 0-448-200.58-448-448s200.58-448 448-448 448 200.58 448 448-200.58 448-448 448zM610.42 251.733h-96.44l-63.98 232.4-63.9-232.4h-96.36l-96 384h97l56.66-272 69.84 272h65.5l69.84-272 52.66 272h97l-91.82-384z" />
<glyph unicode="&#xe9b9;" glyph-name="document_icon-excel" data-tags="document_icon-excel" d="M872 59.733l-230 384 222 384h-210l-142-254.8-142 254.8h-210l222-384-230-384h226l134 249.78 134-249.78z" />
<glyph unicode="&#xe9ba;" glyph-name="document_file-excel" data-tags="document_file-excel" horiz-adv-x="768" d="M768 699.733h-256v256l256-256zM448 635.733h320v-704h-768v1024h448v-320zM384 380.333l-71 127.4h-105l111-192-115-192h113l67 124.9 67-124.9h113l-115 192 111 192h-105l-71-127.4z" />
<glyph unicode="&#xe9bb;" glyph-name="document_file-excel-border" data-tags="document_file-excel-border" horiz-adv-x="768" d="M512 955.733h-512v-1024h768v768l-256 256zM677.5 699.733h-165.5v165.5l165.5-165.5zM704-4.267h-640v896h384v-256h256v-640zM451 123.733l-67 124.9-67-124.9h-113l115 192-111 192h105l71-127.4 71 127.4h105l-111-192 115-192h-113z" />
<glyph unicode="&#xe9bc;" glyph-name="document_file-excel-border-light" data-tags="document_file-excel-border-light" horiz-adv-x="768" d="M512 955.733h-512v-1024h768v768l-256 256zM709.5 699.733h-197.5v197.5l197.5-197.5zM736-36.267h-704v960h448v-256h256v-704zM451 123.733l-67 124.9-67-124.9h-113l115 192-111 192h105l71-127.4 71 127.4h105l-111-192 115-192h-113z" />
<glyph unicode="&#xe9bd;" glyph-name="document_icon-excel-border-square" data-tags="document_icon-excel-border-square" horiz-adv-x="896" d="M515 251.733l-67 124.9-67-124.9h-113l115 192-111 192h105l71-127.4 71 127.4h105l-111-192 115-192h-113zM768 827.733h-640c-35.28 0-64-28.72-64-64v-640c0-35.28 28.72-64 64-64h640c35.28 0 64 28.72 64 64v640c0 35.28-28.72 64-64 64zM768 891.733c70.7 0 128-57.3 128-128v-640c0-70.7-57.3-128-128-128h-640c-70.7 0-128 57.3-128 128v640c0 70.7 57.3 128 128 128h640z" />
<glyph unicode="&#xe9be;" glyph-name="document_icon-excel-border-circle" data-tags="document_icon-excel-border-circle" horiz-adv-x="896" d="M515 251.733l-67 124.9-67-124.9h-113l115 192-111 192h105l71-127.4 71 127.4h105l-111-192 115-192h-113zM896 443.733c0-247.42-200.58-448-448-448s-448 200.58-448 448 200.58 448 448 448 448-200.58 448-448zM448 827.733c-212.080 0-384-171.92-384-384s171.92-384 384-384 384 171.92 384 384-171.92 384-384 384z" />
<glyph unicode="&#xe9bf;" glyph-name="document_icon-excel-square" data-tags="document_icon-excel-square" horiz-adv-x="896" d="M768 891.733h-640c-70.7 0-128-57.3-128-128v-640c0-70.7 57.3-128 128-128h640c70.7 0 128 57.3 128 128v640c0 70.7-57.3 128-128 128zM515 251.733l-67 124.9-67-124.9h-113l115 192-111 192h105l71-127.4 71 127.4h105l-111-192 115-192h-113z" />
<glyph unicode="&#xe9c0;" glyph-name="document_icon-excel-circle" data-tags="document_icon-excel-circle" horiz-adv-x="896" d="M448 891.733c-247.42 0-448-200.58-448-448s200.58-448 448-448 448 200.58 448 448-200.58 448-448 448zM515 251.733l-67 124.9-67-124.9h-113l115 192-111 192h105l71-127.4 71 127.4h105l-111-192 115-192h-113z" />
<glyph unicode="&#xe9c1;" glyph-name="document_icon-powerpoint" data-tags="document_icon-powerpoint" d="M536 299.733c145.8 0 264 118.2 264 264s-118.2 264-264 264h-312v-768h192v240h120zM416 459.733v208h98c57.44 0 104-46.56 104-104s-46.56-104-104-104h-98z" />
<glyph unicode="&#xe9c2;" glyph-name="document_file-powerpoint" data-tags="document_file-powerpoint" horiz-adv-x="768" d="M448 955.733h-448v-1024h768v704h-320v320zM528 375.733c0-72.9-59.1-132-132-132h-60v-120h-96v384h156c72.9 0 132-59.1 132-132zM385 427.733c28.72 0 52-23.28 52-52s-23.28-52-52-52h-49v104h49zM768 699.733h-256v256l256-256z" />
<glyph unicode="&#xe9c3;" glyph-name="document_file-powerpoint-border" data-tags="document_file-powerpoint-border" horiz-adv-x="768" d="M512 955.733h-512v-1024h768v768l-256 256zM677.5 699.733h-165.5v165.5l165.5-165.5zM704-4.267h-640v896h384v-256h256v-640zM396 243.733c72.9 0 132 59.1 132 132s-59.1 132-132 132h-156v-384h96v120h60zM336 323.733v104h49c28.72 0 52-23.28 52-52s-23.28-52-52-52h-49z" />
<glyph unicode="&#xe9c4;" glyph-name="document_file-powerpoint-border-light" data-tags="document_file-powerpoint-border-light" horiz-adv-x="768" d="M512 955.733h-512v-1024h768v768l-256 256zM709.5 699.733h-197.5v197.5l197.5-197.5zM736-36.267h-704v960h448v-256h256v-704zM396 243.733c72.9 0 132 59.1 132 132s-59.1 132-132 132h-156v-384h96v120h60zM336 323.733v104h49c28.72 0 52-23.28 52-52s-23.28-52-52-52h-49z" />
<glyph unicode="&#xe9c5;" glyph-name="document_icon-powerpoint-border-square" data-tags="document_icon-powerpoint-border-square" horiz-adv-x="896" d="M460 371.733c72.9 0 132 59.1 132 132s-59.1 132-132 132h-156v-384h96v120h60zM400 451.733v104h49c28.72 0 52-23.28 52-52s-23.28-52-52-52h-49zM768 827.733h-640c-35.28 0-64-28.72-64-64v-640c0-35.28 28.72-64 64-64h640c35.28 0 64 28.72 64 64v640c0 35.28-28.72 64-64 64zM768 891.733c70.7 0 128-57.3 128-128v-640c0-70.7-57.3-128-128-128h-640c-70.7 0-128 57.3-128 128v640c0 70.7 57.3 128 128 128h640z" />
<glyph unicode="&#xe9c6;" glyph-name="document_icon-powerpoint-border-circle" data-tags="document_icon-powerpoint-border-circle" horiz-adv-x="896" d="M460 371.733c72.9 0 132 59.1 132 132s-59.1 132-132 132h-156v-384h96v120h60zM400 451.733v104h49c28.72 0 52-23.28 52-52s-23.28-52-52-52h-49zM896 443.733c0-247.42-200.58-448-448-448s-448 200.58-448 448 200.58 448 448 448 448-200.58 448-448zM448 827.733c-212.080 0-384-171.92-384-384s171.92-384 384-384 384 171.92 384 384-171.92 384-384 384z" />
<glyph unicode="&#xe9c7;" glyph-name="document_icon-powerpoint-square" data-tags="document_icon-powerpoint-square" horiz-adv-x="896" d="M449 555.733h-49v-104h49c28.72 0 52 23.28 52 52s-23.28 52-52 52zM768 891.733h-640c-70.7 0-128-57.3-128-128v-640c0-70.7 57.3-128 128-128h640c70.7 0 128 57.3 128 128v640c0 70.7-57.3 128-128 128zM460 371.733h-60v-120h-96v384h156c72.9 0 132-59.1 132-132s-59.1-132-132-132z" />
<glyph unicode="&#xe9c8;" glyph-name="document_icon-powerpoint-circle" data-tags="document_icon-powerpoint-circle" horiz-adv-x="896" d="M460 371.733c72.9 0 132 59.1 132 132s-59.1 132-132 132h-156v-384h96v120h60zM400 451.733v104h49c28.72 0 52-23.28 52-52s-23.28-52-52-52h-49zM896 443.733c0-247.42-200.58-448-448-448s-448 200.58-448 448 200.58 448 448 448 448-200.58 448-448z" />
<glyph unicode="&#xe9c9;" glyph-name="document_icon-zip" data-tags="document_icon-zip" d="M448 507.733c0 0-64-172-64-224s57.3-96 128-96 128 44 128 96-64 224-64 224-32 0-64 0v64h-64v-64zM512 315.733c35.34 0 64-14.32 64-32s-28.66-32-64-32-64 14.32-64 32 28.66 32 64 32zM512 571.733v64h64v-64h-64zM448 699.733h64v-64h-64v64zM128 827.733v0-768h770v768h-770zM834 123.733h-642v640h320v-64h64v64h258v-640z" />
<glyph unicode="&#xe9ca;" glyph-name="document_file-zip" data-tags="document_file-zip" horiz-adv-x="768" d="M320 283.733c0-17.68-28.66-32-64-32s-64 14.32-64 32 28.66 32 64 32 64-14.32 64-32zM448 635.733h320v-704h-768v1024h448v-320zM384 283.733c0 52-64 224-64 224s-32 0-64 0v64h64v64h-64v64h64v64h-64v64h64v64h-64v-64h-64v-64h64v-64h-64v-64h64v-64h-64v-64c0 0-64-172-64-224s57.3-96 128-96 128 44 128 96zM512 955.733v-256h256l-256 256z" />
<glyph unicode="&#xe9cb;" glyph-name="document_file-zip-border" data-tags="document_file-zip-border" horiz-adv-x="768" d="M512 955.733h-512v-1024h768v768l-256 256zM512 865.233l165.5-165.5h-165.5v165.5zM704-4.267h-640v896h192v-64h64v64h128v-256h256v-640zM192 507.733c0 0-64-172-64-224s57.3-96 128-96 128 44 128 96-64 224-64 224-32 0-64 0v64h-64v-64zM320 283.733c0-17.68-28.66-32-64-32s-64 14.32-64 32 28.66 32 64 32 64-14.32 64-32zM256 635.733h64v-64h-64v64zM192 699.733h64v-64h-64v64zM256 763.733h64v-64h-64v64zM192 827.733h64v-64h-64v64z" />
<glyph unicode="&#xe9cc;" glyph-name="document_file-zip-border-light" data-tags="document_file-zip-border-light" horiz-adv-x="768" d="M512 955.733h-512v-1024h768v768l-256 256zM512 897.233l197.5-197.5h-197.5v197.5zM736-36.267h-704v960h160v-32h64v32h224v-256h256v-704zM192 507.733c0 0-64-172-64-224s57.3-96 128-96 128 44 128 96-64 224-64 224-32 0-64 0v64h-64v-64zM320 283.733c0-17.68-28.66-32-64-32s-64 14.32-64 32 28.66 32 64 32 64-14.32 64-32zM256 635.733h64v-64h-64v64zM192 699.733h64v-64h-64v64zM256 763.733h64v-64h-64v64zM192 827.733h64v-64h-64v64zM256 891.733h64v-64h-64v64z" />
<glyph unicode="&#xe9cd;" glyph-name="document_icon-zip-border-square" data-tags="document_icon-zip-border-square" horiz-adv-x="896" d="M384 443.733c0 0-64-172-64-224s57.3-96 128-96 128 44 128 96-64 224-64 224-32 0-64 0v64h-64v-64zM512 219.733c0-17.68-28.66-32-64-32s-64 14.32-64 32 28.66 32 64 32 64-14.32 64-32zM448 507.733v64h64v-64h-64zM384 635.733h64v-64h-64v64zM448 635.733v64h64v-64h-64zM384 763.733h64v-64h-64v64zM768 891.733h-640c-70.7 0-128-57.3-128-128v-640c0-70.7 57.3-128 128-128h640c70.7 0 128 57.3 128 128v640c0 70.7-57.3 128-128 128zM832 123.733c0-35.28-28.72-64-64-64h-640c-35.28 0-64 28.72-64 64v640c0 35.28 28.72 64 64 64h320v-64h64v64h256c35.28 0 64-28.72 64-64v-640z" />
<glyph unicode="&#xe9ce;" glyph-name="document_icon-zip-border-circle" data-tags="document_icon-zip-border-circle" horiz-adv-x="896" d="M384 443.733c0 0-64-172-64-224s57.3-96 128-96 128 44 128 96-64 224-64 224-32 0-64 0v64h-64v-64zM512 219.733c0-17.68-28.66-32-64-32s-64 14.32-64 32 28.66 32 64 32 64-14.32 64-32zM448 507.733v64h64v-64h-64zM384 635.733h64v-64h-64v64zM448 635.733v64h64v-64h-64zM384 763.733h64v-64h-64v64zM448 891.733c-247.42 0-448-200.58-448-448s200.58-448 448-448 448 200.58 448 448-200.58 448-448 448zM448 59.733c-212.080 0-384 171.92-384 384s171.92 384 384 384v-64h64v58.66c181.6-30.48 320-188.4 320-378.66 0-212.080-171.92-384-384-384z" />
<glyph unicode="&#xe9cf;" glyph-name="document_icon-zip-square" data-tags="document_icon-zip-square" horiz-adv-x="896" d="M512 219.733c0-17.673-28.654-32-64-32s-64 14.327-64 32c0 17.673 28.654 32 64 32s64-14.327 64-32zM768 891.733h-320v-64h64v-64h-64v-64h64v-64h-64v-64h64v-64h-64v-64c32 0 64 0 64 0s64-172 64-224-57.3-96-128-96-128 44-128 96 64 224 64 224v64h64v64h-64v64h64v64h-64v64h64v64h-64v64h-256c-70.7 0-128-57.3-128-128v-640c0-70.7 57.3-128 128-128h640c70.7 0 128 57.3 128 128v640c0 70.7-57.3 128-128 128z" />
<glyph unicode="&#xe9d0;" glyph-name="icons_user" data-tags="icons_user" d="M832 635.733c0-176.731-143.269-320-320-320s-320 143.269-320 320c0 176.731 143.269 320 320 320s320-143.269 320-320zM1024-4.267c0 159.060-143.26 288-320 288h-50.38c-42.2-20.5-89.56-32-139.62-32s-97.44 11.5-139.62 32h-54.38c-176.74 0-320-128.94-320-288v-32c0-17.68 14.32-32 32-32h960c17.68 0 32 14.32 32 32v32z" />
<glyph unicode="&#xe9d1;" glyph-name="icons_user-regular" data-tags="icons_user-regular" d="M704 219.733c137.98 0 250.82-96 255.82-215.68 0.2-4.54-3.46-8.32-8-8.32h-879.64c-4.54 0-8.2 3.78-8 8.32 5 119.68 117.84 215.68 255.82 215.68h40.34c48.5-21.24 100.12-32 153.66-32s105.16 10.76 153.66 32h36.34zM704 283.733h-50.38c-42.2-20.5-89.56-32-139.62-32s-97.44 11.5-139.62 32h-54.38c-176.74 0-320-128.94-320-288v-32c0-17.68 14.32-32 32-32h960c17.68 0 32 14.32 32 32v32c0 159.060-143.26 288-320 288v0zM512 891.733c68.38 0 132.66-26.62 181.020-74.98s74.98-112.64 74.98-181.020-26.62-132.66-74.98-181.020c-48.36-48.36-112.64-74.98-181.020-74.98s-132.66 26.62-181.020 74.98c-48.36 48.36-74.98 112.64-74.98 181.020s26.62 132.66 74.98 181.020c48.36 48.36 112.64 74.98 181.020 74.98zM512 955.733c-176.74 0-320-143.26-320-320s143.26-320 320-320 320 143.26 320 320-143.26 320-320 320v0z" />
<glyph unicode="&#xe9d2;" glyph-name="icons_user-light" data-tags="icons_user-light" d="M704 251.733c158.8 0 288-114.84 288-256v-16c0-8.84-7.16-16-16-16h-928c-8.84 0-16 7.16-16 16v16c0 141.16 129.2 256 288 256h47.2c46.16-21.24 95.52-32 146.8-32s100.64 10.76 146.8 32h43.2zM704 283.733h-50.38c-42.2-20.5-89.56-32-139.62-32s-97.44 11.5-139.62 32h-54.38c-176.74 0-320-128.94-320-288v-32c0-17.68 14.32-32 32-32h960c17.68 0 32 14.32 32 32v32c0 159.060-143.26 288-320 288v0zM512 923.733c76.92 0 149.26-29.96 203.64-84.36 54.4-54.38 84.36-126.72 84.36-203.64s-29.96-149.26-84.36-203.64c-54.38-54.4-126.72-84.36-203.64-84.36s-149.26 29.96-203.64 84.36c-54.4 54.38-84.36 126.72-84.36 203.64s29.96 149.26 84.36 203.64c54.38 54.4 126.72 84.36 203.64 84.36zM512 955.733c-176.74 0-320-143.26-320-320s143.26-320 320-320 320 143.26 320 320-143.26 320-320 320v0z" />
<glyph unicode="&#xe9d3;" glyph-name="icons_cog" data-tags="icons_cog" d="M888.080 365.813l115.32-94.94-96-166.28-139.98 52.44c-38.72-34.52-84.48-61.32-134.88-77.98l-24.54-147.32h-192l-24.56 147.34c-50.38 16.64-96.14 43.44-134.88 77.98l-139.96-52.46-96 166.28 115.32 94.94c-5.18 25.16-7.92 51.22-7.92 77.92s2.74 52.76 7.92 77.92l-115.32 94.94 96 166.28 139.98-52.44c38.72 34.52 84.48 61.32 134.88 77.98l24.54 147.32h192l24.56-147.34c50.38-16.64 96.14-43.44 134.88-77.98l139.98 52.44 96-166.28-115.32-94.94c5.18-25.16 7.92-51.22 7.92-77.92s-2.76-52.74-7.94-77.9zM512 603.733c-88.36 0-160-71.64-160-160s71.64-160 160-160 160 71.64 160 160-71.64 160-160 160z" />
<glyph unicode="&#xe9d4;" glyph-name="icons_cog-regular" data-tags="icons_cog-regular" d="M553.78 891.733l15.64-93.86 6.36-38.12 36.7-12.12c41.62-13.76 79.44-35.62 112.36-64.98l28.84-25.72 125.4 46.98 41.78-72.38-103.26-85.020 7.8-37.8c4.38-21.24 6.6-43.12 6.6-65s-2.22-43.76-6.6-65l-7.8-37.8 103.26-85.020-41.78-72.38-125.4 46.98-28.84-25.72c-32.92-29.36-70.74-51.22-112.36-64.98l-36.7-12.12-6.36-38.12-15.64-93.82h-83.56l-15.64 93.86-6.36 38.12-36.7 12.12c-41.62 13.76-79.44 35.62-112.36 64.98l-28.84 25.72-125.4-46.98-41.78 72.38 103.26 85.020-7.8 37.8c-4.38 21.22-6.6 43.1-6.6 64.98s2.22 43.76 6.6 65l7.8 37.8-103.26 85.020 41.78 72.38 125.4-46.98 28.84 25.72c32.92 29.36 70.74 51.22 112.36 64.98l36.7 12.12 6.36 38.12 15.64 93.84h83.56zM608 955.733h-192l-24.56-147.34c-50.38-16.64-96.14-43.44-134.88-77.98l-139.96 52.46-96-166.28 115.32-94.94c-5.18-25.16-7.92-51.22-7.92-77.92s2.74-52.76 7.92-77.92l-115.32-94.94 96-166.28 139.98 52.44c38.72-34.52 84.48-61.32 134.88-77.98l24.54-147.32h192l24.56 147.34c50.38 16.64 96.14 43.44 134.88 77.98l139.98-52.44 96 166.28-115.32 94.94c5.18 25.16 7.92 51.22 7.92 77.92s-2.74 52.76-7.92 77.92l115.32 94.94-96 166.28-139.98-52.44c-38.72 34.52-84.48 61.32-134.88 77.98l-24.56 147.3zM512 571.733c70.58 0 128-57.42 128-128s-57.42-128-128-128-128 57.42-128 128 57.42 128 128 128zM512 635.733c-106.040 0-192-85.96-192-192s85.96-192 192-192 192 85.96 192 192-85.96 192-192 192v0z" />
<glyph unicode="&#xe9d5;" glyph-name="icons_cog-light" data-tags="icons_cog-light" d="M580.9 923.733l23.28-139.66 18.34-6.060c45.8-15.14 87.4-39.18 123.62-71.48l14.42-12.86 132.7 49.72 68.9-119.32-109.3-89.96 3.9-18.9c4.82-23.36 7.26-47.42 7.26-71.46s-2.44-48.1-7.26-71.46l-3.9-18.9 109.3-89.96-68.9-119.32-132.7 49.72-14.42-12.86c-36.22-32.3-77.8-56.34-123.62-71.48l-18.34-6.060-3.18-19.060-20.1-120.64h-137.78l-23.28 139.66-18.34 6.060c-45.8 15.14-87.4 39.18-123.62 71.48l-14.42 12.86-132.7-49.72-68.9 119.32 109.3 89.96-3.9 18.9c-4.82 23.38-7.26 47.42-7.26 71.48s2.44 48.1 7.26 71.46l3.9 18.9-109.3 89.96 68.9 119.32 132.7-49.72 14.42 12.86c36.22 32.3 77.8 56.34 123.62 71.48l18.34 6.060 3.18 19.060 20.080 120.62h137.8zM608 955.733h-192l-24.56-147.34c-50.38-16.64-96.14-43.44-134.88-77.98l-139.96 52.46-96-166.28 115.32-94.94c-5.18-25.16-7.92-51.22-7.92-77.92s2.74-52.76 7.92-77.92l-115.32-94.94 96-166.28 139.98 52.44c38.72-34.52 84.48-61.32 134.88-77.98l24.54-147.32h192l24.56 147.34c50.38 16.64 96.14 43.44 134.88 77.98l139.98-52.44 96 166.28-115.32 94.94c5.18 25.16 7.92 51.22 7.92 77.92s-2.74 52.76-7.92 77.92l115.32 94.94-96 166.28-139.98-52.44c-38.72 34.52-84.48 61.32-134.88 77.98l-24.56 147.3zM512 571.733c70.58 0 128-57.42 128-128s-57.42-128-128-128-128 57.42-128 128 57.42 128 128 128zM512 603.733c-88.36 0-160-71.64-160-160s71.64-160 160-160 160 71.64 160 160-71.64 160-160 160v0z" />
<glyph unicode="&#xe9d6;" glyph-name="icons_home" data-tags="icons_home" d="M512 891.733l-512-448h126v-448h258v256h256v-256h258v448h126z" />
<glyph unicode="&#xe9d7;" glyph-name="icons_home-regular" data-tags="icons_home-regular" d="M896-4.267v448h128l-512 448-512-448h128v-448h320v256h128v-256h320zM384 315.733v-256h-192v466.96l320 281.040 320-281.040v-466.96h-192v256h-256z" />
<glyph unicode="&#xe9d8;" glyph-name="icons_home-light" data-tags="icons_home-light" d="M512 849.213l426.84-373.48h-74.84v-448h-192v256h-320v-256h-192v448h-74.84l426.84 373.48zM512 891.733l-512-448h128v-448h256v256h256v-256h256v448h128l-512 448z" />
<glyph unicode="&#xe9d9;" glyph-name="icons_star" data-tags="icons_star" d="M512 869.813l138.44-280.52 309.56-44.98-224-218.34 52.88-308.32-276.88 145.58-276.88-145.58 52.88 308.32-224 218.34 309.56 44.98z" />
<glyph unicode="&#xe9da;" glyph-name="icons_star-regular" data-tags="icons_star-regular" d="M512 725.193l95.94-194.4 214.52-31.18-155.24-151.32 36.64-213.66-191.86 100.9-191.88-100.88 36.64 213.66-155.24 151.32 214.52 31.18 95.96 194.38zM512 869.813l-138.44-280.5-309.56-45 224-218.34-52.88-308.3 276.88 145.56 276.88-145.56-52.88 308.3 224 218.34-309.56 44.98-138.44 280.52z" />
<glyph unicode="&#xe9db;" glyph-name="icons_star-light" data-tags="icons_star-light" d="M512 797.493l117.18-237.46 262.040-38.080-189.62-184.84 44.76-260.98-234.36 123.24-234.38-123.22 44.76 260.98-189.62 184.84 262.040 38.080 117.2 237.44zM512 869.813l-138.44-280.5-309.56-45 224-218.34-52.88-308.3 276.88 145.56 276.88-145.56-52.88 308.3 224 218.34-309.56 44.98-138.44 280.52z" />
<glyph unicode="&#xe9dc;" glyph-name="icons_star-half" data-tags="icons_star-half" d="M373.56 589.293l-309.56-44.98 224-218.34-52.88-308.32 276.88 145.58v706.58z" />
<glyph unicode="&#xe9dd;" glyph-name="icons_star-half-regular" data-tags="icons_star-half-regular" d="M512 725.193v144.62l-138.44-280.52-309.56-44.98 224-218.34-52.88-308.32 276.88 145.58v72.3l-191.88-100.88 36.64 213.66-155.22 151.32 214.52 31.16z" />
<glyph unicode="&#xe9de;" glyph-name="icons_star-half-light" data-tags="icons_star-half-light" d="M512 797.493v72.32l-138.44-280.52-309.56-44.98 224-218.34-52.88-308.32 276.88 145.58v36.14l-234.38-123.22 44.76 260.98-189.62 184.84 262.060 38.080z" />
<glyph unicode="&#xe9df;" glyph-name="icons_sitemap" data-tags="icons_sitemap" d="M896 251.733v224h-352v160h160v256h-384v-256h160v-160h-352v-224h-128v-256h320v256h-128v160h288v-160h-128v-256h320v256h-128v160h288v-160h-128v-256h320v256z" />
<glyph unicode="&#xe9e0;" glyph-name="icons_sitemap-regular" data-tags="icons_sitemap-regular" d="M896 251.733v224h-352v160h160v256h-384v-256h160v-160h-352v-224h-128v-256h320v256h-128v160h288v-160h-128v-256h320v256h-128v160h288v-160h-128v-256h320v256h-128zM384 827.733h256v-128h-256v128zM256 59.733h-192v128h192v-128zM608 59.733h-192v128h192v-128zM960 59.733h-192v128h192v-128z" />
<glyph unicode="&#xe9e1;" glyph-name="icons_sitemap-light" data-tags="icons_sitemap-light" d="M880 251.733v208h-352v176h176v256h-384v-256h176v-176h-352v-208h-144v-256h320v256h-144v176h320v-176h-144v-256h320v256h-144v176h320v-176h-144v-256h320v256h-144zM352 859.733h320v-192h-320v192zM288 219.733v-192h-256v192h256zM640 27.733h-256v192h256v-192zM992 27.733h-256v192h256v-192z" />
<glyph unicode="&#xe9e2;" glyph-name="arrow_left-border-square" data-tags="arrow_left-border-square" horiz-adv-x="896" d="M703.76 411.733h-389.020l194.28-194.28-45.26-45.26-271.52 271.54 271.52 271.52 45.26-45.26-194.28-194.26h389.020v-64zM768 827.733c35.28 0 64-28.72 64-64v-640c0-35.28-28.72-64-64-64h-640c-35.28 0-64 28.72-64 64v640c0 35.28 28.72 64 64 64h640zM768 891.733h-640c-70.7 0-128-57.3-128-128v-640c0-70.7 57.3-128 128-128h640c70.7 0 128 57.3 128 128v640c0 70.7-57.3 128-128 128v0z" />
<glyph unicode="&#xe9e3;" glyph-name="arrow_right-border-square" data-tags="arrow_right-border-square" horiz-adv-x="896" d="M704 443.733l-271.52-271.52-45.26 45.26 194.28 194.26h-389.5v64h389.5l-194.28 194.28 45.26 45.26 271.52-271.54zM768 827.733c35.28 0 64-28.72 64-64v-640c0-35.28-28.72-64-64-64h-640c-35.28 0-64 28.72-64 64v640c0 35.28 28.72 64 64 64h640zM768 891.733h-640c-70.7 0-128-57.3-128-128v-640c0-70.7 57.3-128 128-128h640c70.7 0 128 57.3 128 128v640c0 70.7-57.3 128-128 128v0z" />
<glyph unicode="&#xe9e4;" glyph-name="arrow_up-border-square" data-tags="arrow_up-border-square" horiz-adv-x="896" d="M674.28 382.953l-194.28 194.28v-389.5h-64v389.5l-194.28-194.28-45.26 45.26 271.54 271.52 271.52-271.52-45.24-45.26zM768 827.733c35.28 0 64-28.72 64-64v-640c0-35.28-28.72-64-64-64h-640c-35.28 0-64 28.72-64 64v640c0 35.28 28.72 64 64 64h640zM768 891.733h-640c-70.7 0-128-57.3-128-128v-640c0-70.7 57.3-128 128-128h640c70.7 0 128 57.3 128 128v640c0 70.7-57.3 128-128 128v0z" />
<glyph unicode="&#xe9e5;" glyph-name="arrow_down-border-square" data-tags="arrow_down-border-square" horiz-adv-x="896" d="M719.52 459.073l-271.52-271.54-271.52 271.54 45.26 45.26 194.26-194.28v389.88h64v-389.88l194.28 194.28 45.24-45.26zM768 827.733c35.28 0 64-28.72 64-64v-640c0-35.28-28.72-64-64-64h-640c-35.28 0-64 28.72-64 64v640c0 35.28 28.72 64 64 64h640zM768 891.733h-640c-70.7 0-128-57.3-128-128v-640c0-70.7 57.3-128 128-128h640c70.7 0 128 57.3 128 128v640c0 70.7-57.3 128-128 128v0z" />
<glyph unicode="&#xe9e6;" glyph-name="arrow_left-border-square-light" data-tags="arrow_left-border-square-light" horiz-adv-x="896" d="M704 427.733h-450.74l238.56-238.56-22.62-22.62-277.2 277.18 277.18 277.18 22.62-22.62-238.54-238.56h450.74v-32zM768 891.733h-640c-70.7 0-128-57.3-128-128v-640c0-70.7 57.3-128 128-128h640c70.7 0 128 57.3 128 128v640c0 70.7-57.3 128-128 128v0zM760 27.733h-624c-57.44 0-104 46.56-104 104v624c0 57.44 46.56 104 104 104h624c57.44 0 104-46.56 104-104v-624c0-57.44-46.56-104-104-104z" />
<glyph unicode="&#xe9e7;" glyph-name="arrow_right-border-square-light" data-tags="arrow_right-border-square-light" horiz-adv-x="896" d="M704 443.733l-277.18-277.18-22.62 22.62 238.54 238.56h-450.74v32h450.74l-238.56 238.56 22.62 22.62 277.2-277.18zM768 891.733h-640c-70.7 0-128-57.3-128-128v-640c0-70.7 57.3-128 128-128h640c70.7 0 128 57.3 128 128v640c0 70.7-57.3 128-128 128v0zM760 27.733h-624c-57.44 0-104 46.56-104 104v624c0 57.44 46.56 104 104 104h624c57.44 0 104-46.56 104-104v-624c0-57.44-46.56-104-104-104z" />
<glyph unicode="&#xe9e8;" glyph-name="arrow_up-border-square-light" data-tags="arrow_up-border-square-light" horiz-adv-x="896" d="M702.56 399.913l-238.56 238.56v-450.74h-32v450.74l-238.56-238.56-22.62 22.62 277.18 277.2 277.18-277.18-22.62-22.64zM0 763.733v-640c0-70.7 57.3-128 128-128h640c70.7 0 128 57.3 128 128v640c0 70.7-57.3 128-128 128h-640c-70.7 0-128-57.3-128-128v0zM864 755.733v-624c0-57.44-46.56-104-104-104h-624c-57.44 0-104 46.56-104 104v624c0 57.44 46.56 104 104 104h624c57.44 0 104-46.56 104-104z" />
<glyph unicode="&#xe9e9;" glyph-name="arrow_down-border-square-light" data-tags="arrow_down-border-square-light" horiz-adv-x="896" d="M725.18 464.913l-277.18-277.18-277.18 277.18 22.62 22.62 238.56-238.54v450.74h32v-450.74l238.56 238.56 22.62-22.64zM896 123.733v640c0 70.7-57.3 128-128 128h-640c-70.7 0-128-57.3-128-128v-640c0-70.7 57.3-128 128-128h640c70.7 0 128 57.3 128 128v0zM32 131.733v624c0 57.44 46.56 104 104 104h624c57.44 0 104-46.56 104-104v-624c0-57.44-46.56-104-104-104h-624c-57.44 0-104 46.56-104 104z" />
<glyph unicode="&#xe9ea;" glyph-name="arrow_left-border-square-bold" data-tags="arrow_left-border-square-bold" horiz-adv-x="896" d="M768 891.733h-640c-70.7 0-128-57.3-128-128v-640c0-70.7 57.3-128 128-128h640c70.7 0 128 57.3 128 128v640c0 70.7-57.3 128-128 128v0zM741.34 795.733c32.34 0 58.66-26.32 58.66-58.66v-586.66c0-32.34-26.32-58.66-58.66-58.66h-586.68c-32.34-0.020-58.66 26.3-58.66 58.64v586.68c0 32.34 26.32 58.66 58.66 58.66h586.68zM704 395.733h-328.24l162.28-162.28-67.88-67.88-278.16 278.16 278.16 278.16 67.88-67.88-162.28-162.28h328.24v-96z" />
<glyph unicode="&#xe9eb;" glyph-name="arrow_right-border-square-bold" data-tags="arrow_right-border-square-bold" horiz-adv-x="896" d="M768 891.733h-640c-70.7 0-128-57.3-128-128v-640c0-70.7 57.3-128 128-128h640c70.7 0 128 57.3 128 128v640c0 70.7-57.3 128-128 128v0zM741.34 795.733c32.34 0 58.66-26.32 58.66-58.66v-586.66c0-32.34-26.32-58.66-58.66-58.66h-586.68c-32.34-0.020-58.66 26.3-58.66 58.64v586.68c0 32.34 26.32 58.66 58.66 58.66h586.68zM192 491.733h328.24l-162.28 162.28 67.88 67.88 278.16-278.16-278.16-278.16-67.88 67.88 162.28 162.28h-328.24v96z" />
<glyph unicode="&#xe9ec;" glyph-name="arrow_up-border-square-bold" data-tags="arrow_up-border-square-bold" horiz-adv-x="896" d="M768 891.733h-640c-70.7 0-128-57.3-128-128v-640c0-70.7 57.3-128 128-128h640c70.7 0 128 57.3 128 128v640c0 70.7-57.3 128-128 128v0zM741.34 795.733c32.34 0 58.66-26.32 58.66-58.66v-586.66c0-32.34-26.32-58.66-58.66-58.66h-586.68c-32.34-0.020-58.66 26.3-58.66 58.64v586.68c0 32.34 26.32 58.66 58.66 58.66h586.68zM400 187.733v328.24l-162.28-162.28-67.88 67.88 278.16 278.16 278.16-278.16-67.88-67.88-162.28 162.28v-328.24h-96z" />
<glyph unicode="&#xe9ed;" glyph-name="arrow_down-border-square-bold" data-tags="arrow_down-border-square-bold" horiz-adv-x="896" d="M768 891.733h-640c-70.7 0-128-57.3-128-128v-640c0-70.7 57.3-128 128-128h640c70.7 0 128 57.3 128 128v640c0 70.7-57.3 128-128 128v0zM741.34 795.733c32.34 0 58.66-26.32 58.66-58.66v-586.66c0-32.34-26.32-58.66-58.66-58.66h-586.68c-32.34-0.020-58.66 26.3-58.66 58.64v586.68c0 32.34 26.32 58.66 58.66 58.66h586.68zM496 699.733v-328.24l162.28 162.28 67.88-67.88-278.16-278.16-278.16 278.16 67.88 67.88 162.28-162.28v328.24h96z" />
<glyph unicode="&#xe9ee;" glyph-name="arrow_left-border-circle" data-tags="arrow_left-border-circle" horiz-adv-x="896" d="M703.76 411.733h-389.020l194.28-194.28-45.26-45.26-271.52 271.54 271.52 271.52 45.26-45.26-194.28-194.26h389.020v-64zM448 891.733c-247.42 0-448-200.58-448-448s200.58-448 448-448 448 200.58 448 448-200.58 448-448 448zM832 443.733c0-212.080-171.92-384-384-384s-384 171.92-384 384 171.92 384 384 384 384-171.92 384-384z" />
<glyph unicode="&#xe9ef;" glyph-name="arrow_right-border-circle" data-tags="arrow_right-border-circle" horiz-adv-x="896" d="M704 443.733l-271.52-271.52-45.26 45.26 194.28 194.26h-389.5v64h389.5l-194.28 194.28 45.26 45.26 271.52-271.54zM900 443.733c0-247.42-200.58-448-448-448s-448 200.58-448 448 200.58 448 448 448 448-200.58 448-448zM452 827.733c-212.080 0-384-171.92-384-384s171.92-384 384-384 384 171.92 384 384-171.92 384-384 384z" />
<glyph unicode="&#xe9f0;" glyph-name="arrow_down-border-circle" data-tags="arrow_down-border-circle" horiz-adv-x="896" d="M719.52 459.073l-271.52-271.54-271.52 271.54 45.26 45.26 194.26-194.28v389.88h64v-389.88l194.28 194.28 45.24-45.26zM896 443.733c0-247.42-200.58-448-448-448s-448 200.58-448 448 200.58 448 448 448 448-200.58 448-448zM448 827.733c-212.080 0-384-171.92-384-384s171.92-384 384-384 384 171.92 384 384-171.92 384-384 384z" />
<glyph unicode="&#xe9f1;" glyph-name="arrow_up-border-circle" data-tags="arrow_up-border-circle" horiz-adv-x="896" d="M674.28 382.953l-194.28 194.28v-389.5h-64v389.5l-194.28-194.28-45.26 45.26 271.54 271.52 271.52-271.52-45.24-45.26zM896 443.733c0-247.42-200.58-448-448-448s-448 200.58-448 448 200.58 448 448 448 448-200.58 448-448zM448 827.733c-212.080 0-384-171.92-384-384s171.92-384 384-384 384 171.92 384 384-171.92 384-384 384z" />
<glyph unicode="&#xe9f2;" glyph-name="arrow_left-border-circle-light" data-tags="arrow_left-border-circle-light" horiz-adv-x="896" d="M448 891.733c-247.42 0-448-200.58-448-448s200.58-448 448-448 448 200.58 448 448-200.58 448-448 448zM864 443.733c0-229.76-186.24-416-416-416s-416 186.24-416 416 186.24 416 416 416 416-186.24 416-416zM704 427.733h-450.74l238.56-238.56-22.62-22.62-277.2 277.18 277.18 277.18 22.62-22.62-238.54-238.56h450.74v-32z" />
<glyph unicode="&#xe9f3;" glyph-name="arrow_right-border-circle-light" data-tags="arrow_right-border-circle-light" horiz-adv-x="896" d="M452 891.733c-247.42 0-448-200.58-448-448s200.58-448 448-448 448 200.58 448 448-200.58 448-448 448zM868 443.733c0-229.76-186.24-416-416-416s-416 186.24-416 416 186.24 416 416 416 416-186.24 416-416zM704 443.733l-277.18-277.18-22.62 22.62 238.54 238.56h-450.74v32h450.74l-238.56 238.56 22.62 22.62 277.2-277.18z" />
<glyph unicode="&#xe9f4;" glyph-name="arrow_up-border-circle-light" data-tags="arrow_up-border-circle-light" horiz-adv-x="896" d="M448 891.733c-247.42 0-448-200.58-448-448s200.58-448 448-448 448 200.58 448 448-200.58 448-448 448zM864 443.733c0-229.76-186.24-416-416-416s-416 186.24-416 416 186.24 416 416 416 416-186.24 416-416zM702.56 399.913l-238.56 238.56v-450.74h-32v450.74l-238.56-238.56-22.62 22.62 277.18 277.2 277.18-277.18-22.62-22.64z" />
</font>
</defs>
</svg>
